<?xml version="1.0" encoding="utf-8"?>
<!-- Generator: Adobe Illustrator 21.0.0, SVG Export Plug-In . SVG Version: 6.00 Build 0)  -->
<svg version="1.1" id="Layer_1" xmlns="http://www.w3.org/2000/svg" xmlns:xlink="http://www.w3.org/1999/xlink" x="0px" y="0px"
	 viewBox="0 0 320 320" style="enable-background:new 0 0 320 320;" xml:space="preserve">
<style type="text/css">
	.st0{fill:#FCFDFD;} 
<!--	/* background & metal parts */-->
	.st2{fill:#728c8b;} 
<!--	/* hair */-->
	.st3{fill:#f7f6f4;} 
<!--	/* skin */-->
	.st4{fill:#e8e7e4;} 
<!--	/* skin shadow*/-->
	.st5{fill:#00a8a0;} 
<!--	/* dress */-->
	.st6{fill:#0f6965;} 
<!--	/* wire */-->
</style>
<rect class="st0" width="320" height="320"/>
<g>
	<path class="st2" d="M197.1,206.9c60.1-23.8,1.4-124.5-1.4-125.5c-11-3.8-30.3-24-63.6-8.1c-8.8,4.2-58.7,93.9-21.1,123.4
		C144.5,223,178.7,214.2,197.1,206.9z"/>
	<path class="st3" d="M159.9,180.4h-0.3h-28.7c0,0.2-0.1,0.4-0.1,0.7c-0.9,8.8-2.5,15.4-4.4,20.3c-5.4,13.8-13.2,14-13.3,15
		c0,0.2,24,34.9,46.5,35.4l0,0h0.2c10.5-0.6,32.2-20.8,41.7-30.2c0.1-3.5-4-5.9-3.9-6.1C187.1,214.6,159.9,180.4,159.9,180.4z"/>
	<path class="st4" d="M173.6,217.1c5.6,2.5,18.4,4,28.5,4.6c2.4-2.3,4.1-5.2,4.2-5.4c0,0-8.2-2.9-12.2-12.3
		c-2.3-5.3-4.3-12.2-5.4-23.8l-28.8,0.1h-0.3h-28.7c0,0.2,0,0.4-0.1,0.7C132.9,185.5,142.7,203.4,173.6,217.1z"/>
	<path class="st2" d="M166.5,178.5c0,0-33.6-5.4-58.3-37.7c-22.8-29.7-13.6-86.5,29-101.7c68.3-24.2,83.1,34.5,84.1,56
		C222.8,128,210.5,170.5,166.5,178.5z"/>
	<path class="st3" d="M214.4,112.8c-3,0.2-5,2.8-6.2,5.1c-0.4,8.2-1.5,16.9-3.9,24.9c-0.2,0.8-0.4,1.6-0.7,2.3
		c0,1.7,0.1,2.9,0.5,3.2c1.9,1.9,6.5-3.1,8.9-12.6C215.3,126.2,219.6,112.5,214.4,112.8z"/>
	<path class="st3" d="M207.5,81.6c-9-23.2-78-14-84.9-5.3c-4.9,6.2-9.5,25-10.5,41.6c0,0,0,0,0,0c-1-2.3-3.2-4.9-6.2-5.1
		c-5.2-0.3-0.9,13.4,1.4,22.9c2.4,9.5,7,14.5,8.9,12.6c0.2-0.1,0.3-0.4,0.4-0.8c2.7,10.7,5.6,21.5,11.7,30.6
		c2.6,3.9,22.8,19.9,31.7,18.9h0.1c10.4,0,28.6-11.7,33.7-20.3c5.4-9.1,7.9-20.4,11.2-32.4c0.3-0.9,0.5-1.8,0.8-2.8
		c2.2-7.8,3.3-16.1,3.8-23.9c0.2-3,0.2-5.9,0.2-8.7C209.6,93.6,207.5,81.6,207.5,81.6z"/>
	<g>
		<path class="st3" d="M207.6,81.6C202.7,69.1,181,66,160,67.2V197c0,0-0.1,0-0.1,0h0.1c10.4,0,28.6-11.7,33.7-20.3
			c5.4-9.1,7.9-20.4,11.2-32.4c0.3-0.9,0.5-1.8,0.8-2.8c2.2-7.8,3.3-16.1,3.8-23.9c0.2-3,0.2-5.9,0.2-8.7
			C209.6,93.6,207.6,81.6,207.6,81.6z"/>
	</g>
	<path class="st2" d="M192.6,60.7c0,0,6.3,15.5-6.9,31c-13.1,15.4-41.4,24.2-41.4,24.2s16.4-10.2,17.8-22.6
		c-4.9,5.8-2.6,10.3-26.9,18.8c-15.1,5.3-29.3,6.4-29.3,6.4s5.3-8.3,2.2-32.3C102.1,41.6,192.6,60.7,192.6,60.7z"/>
	<g>
		<path class="st5" d="M266.9,249.2c-3.2-8.6-7.1-15.3-11.6-17.6c-16.2-8.1-48-14.6-48.9-14.8c0,0-0.1,0.3-0.2,0.4
			c-2.4,2.3-33.1,31.8-46.3,32.8c-0.1,0-0.2,0-0.2,0c-12.9-1-46.7-33.2-46.7-33.2s-32.5,6.5-49,14.8c-4.5,2.3-8.4,9-11.6,17.6
			c-3.3,8.8-7.6,19.6-9.6,29.4c-3,14.9-6.2,39.7-6.4,41.4h247.2c-0.2-1.7-4-26.6-7.1-41.4C274.5,268.8,270.2,258,266.9,249.2z"/>
	</g>
	<path class="st0" d="M212,279.9l0.2-20.6l-4.7-0.6l-0.7,21.2c-5.4,1.2-9.4,6-9.4,11.7c0,6.6,5.4,12,12,12c6.6,0,12-5.4,12-12
		C221.4,285.9,217.4,281.1,212,279.9z"/>
	<path class="st4" d="M218.2,292c0,5-4.1,9.1-9.1,9.1S200,297,200,292s4.1-9.1,9.1-9.1S218.2,287,218.2,292z"/>
	<path class="st0" d="M214.9,292.1c0,3.4-2.8,6.2-6.2,6.2s-6.2-2.8-6.2-6.2s2.8-6.2,6.2-6.2C212.1,286,214.9,288.7,214.9,292.1z"/>
	<path class="st6" d="M199.7,212.5c0,0,4.3,5.2,5.8,18.4c1.5,13.2,0.8,31.1,0.8,31.1h6.6c0,0,0.6-12.6-0.6-32.6
		c-1.1-20-18.2-25.4-18.2-25.4S195.9,208.6,199.7,212.5z"/>
	<g>
		<g>
			<path class="st0" d="M99.4,294.1l-2.2,5.1c0,0,1.7,11.4,4.2,20.8h3.5C101.9,309.5,99.4,294.1,99.4,294.1z"/>
			<path class="st0" d="M122,297.1l-3.1-4.6c0,0,0.4,16.7-0.8,27.5h3.5C122.5,310,122,297.1,122,297.1z"/>
		</g>
		<path class="st6" d="M119.7,212.6c-3.5,3.1-9.9,12.3-10.8,24c-0.8,10,0.9,20.1,0.9,20.1s10.2,0.4,11.9,16.7
			c0.6,6.5,0.5,25.3,0.5,25.3l-4.1-0.2c0,0-0.6-14.2-1.5-23.3c-1.6-15.9-15.3-16.4-17.2,0.1c-0.6,5.4,2.2,24.3,2.2,24.3l-4.9,0.5
			c0,0-3.8-18.6-2.7-27.7c1.6-13.1,9.5-15.7,9.5-15.7s-0.2-3.7-0.4-12.9c-0.2-10.4,1.3-17.8,7.5-27.3c4.6-7,15.8-15.1,15.8-15.1
			S123.7,208.9,119.7,212.6z"/>
	</g>
</g>
</svg>
