<svg width="24" height="35" viewBox="0 0 24 35" xmlns="http://www.w3.org/2000/svg"><title>i_2</title><desc>Created with Sketch.</desc><defs><linearGradient x1="17.377%" y1="0%" y2="79.133%" id="a"><stop stop-color="#B7D044" offset="0%"/><stop stop-color="#12ADA4" offset="100%"/></linearGradient></defs><path d="M1.57 27.469c.953-2.266 3.203-4.664 6.75-7.195 3.078-2.203 5.07-3.781 5.977-4.734 1.391-1.484 2.086-3.109 2.086-4.875 0-1.438-.398-2.633-1.195-3.586-.797-.953-1.937-1.43-3.422-1.43-2.031 0-3.414.758-4.148 2.273-.422.875-.672 2.266-.75 4.172h-6.492c.109-2.891.633-5.227 1.57-7.008 1.781-3.391 4.945-5.086 9.492-5.086 3.594 0 6.453.996 8.578 2.988 2.125 1.992 3.188 4.629 3.188 7.91 0 2.516-.75 4.75-2.25 6.703-.984 1.297-2.602 2.742-4.852 4.336l-2.672 1.898c-1.672 1.188-2.816 2.047-3.434 2.578-.617.531-1.137 1.148-1.559 1.852h14.836v5.883h-23.273c.063-2.438.586-4.664 1.57-6.68z" fill="url(#a)"/></svg>