<svg width="46" height="27" viewBox="0 0 46 27" xmlns="http://www.w3.org/2000/svg"><title>i_Infinity</title><desc>Created with Sketch.</desc><defs><linearGradient x1="17.377%" y1="0%" y2="79.133%" id="a"><stop stop-color="#B7D044" offset="0%"/><stop stop-color="#12ADA4" offset="100%"/></linearGradient></defs><path d="M45.656 13.805c0 3.656-1.113 6.656-3.34 9-2.227 2.344-5.199 3.516-8.918 3.516-2.391 0-4.465-.687-6.223-2.063-1.758-1.375-3.215-3.141-4.371-5.297-1.188 2.172-2.66 3.941-4.418 5.309-1.758 1.367-3.816 2.051-6.176 2.051-3.719 0-6.684-1.172-8.895-3.516-2.211-2.344-3.316-5.344-3.316-9v-1.266c0-3.641 1.105-6.641 3.316-9s5.16-3.539 8.848-3.539c2.391 0 4.465.672 6.223 2.016 1.758 1.344 3.23 3.062 4.418 5.156 1.156-2.094 2.617-3.812 4.383-5.156 1.766-1.344 3.852-2.016 6.258-2.016 3.688 0 6.645 1.18 8.871 3.539 2.227 2.359 3.34 5.359 3.34 9v1.266zm-6.844-1.266c0-2.156-.461-3.906-1.383-5.25-.922-1.344-2.25-2.016-3.984-2.016-2 0-3.645.91-4.934 2.73-1.289 1.82-2.043 3.371-2.262 4.652v.703c.203 1.328.957 2.945 2.262 4.852 1.305 1.906 2.934 2.859 4.887 2.859 1.75 0 3.09-.66 4.02-1.98.93-1.32 1.395-3.082 1.395-5.285v-1.266zm-31.992 1.266c0 2.203.453 3.965 1.359 5.285.906 1.32 2.25 1.98 4.031 1.98 1.938 0 3.562-.953 4.875-2.859 1.313-1.906 2.078-3.523 2.297-4.852v-.703c-.266-1.297-1.039-2.852-2.32-4.664-1.281-1.813-2.914-2.719-4.898-2.719-1.734 0-3.059.672-3.973 2.016-.914 1.344-1.371 3.094-1.371 5.25v1.266z" fill="url(#a)"/></svg>