<svg width="18" height="18" viewBox="0 0 18 18" xmlns="http://www.w3.org/2000/svg"><title>icon_time</title><desc>Created with Sketch.</desc><path d="M8 14c0 .552.448 1 1 1s1-.448 1-1-.448-1-1-1-1 .448-1 1zm0-14v4h2v-1.92c3.39.49 6 3.39 6 6.92 0 3.866-3.134 7-7 7s-7-3.134-7-7c0-1.68.59-3.22 1.58-4.42l5.42 5.42 1.41-1.41-6.8-6.8v.02c-2.19 1.64-3.61 4.24-3.61 7.19 0 4.971 4.029 9 9 9s9-4.029 9-9-4.029-9-9-9h-1zm7 9c0-.552-.448-1-1-1s-1 .448-1 1 .448 1 1 1 1-.448 1-1zm-12 0c0 .552.448 1 1 1s1-.448 1-1-.448-1-1-1-1 .448-1 1z" fill-rule="nonzero" fill="#84775A"/></svg>