<?xml version="1.0" encoding="UTF-8"?>
<svg width="191px" height="135px" viewBox="0 0 191 135" version="1.1" xmlns="http://www.w3.org/2000/svg" xmlns:xlink="http://www.w3.org/1999/xlink">
    <!-- Generator: Sketch 43.2 (39069) - http://www.bohemiancoding.com/sketch -->
    <title>logo_footer</title>
    <desc>Created with Sketch.</desc>
    <defs>
        <polygon id="path-1" points="0.226824168 0.239 59.0805508 0.239 59.0805508 135.000024 0.226824168 135.000024 0.226824168 0.239"></polygon>
        <polygon id="path-3" points="0 92.1662279 0 0.368437009 62.3488061 0.368437009 62.3488061 92.1662279 6.069296e-16 92.1662279"></polygon>
    </defs>
    <g id="Symbols" stroke="none" stroke-width="1" fill="none" fill-rule="evenodd">
        <g id="Footer" transform="translate(-904.000000, -283.000000)">
            <g id="logo_footer">
                <g transform="translate(904.000000, 282.000000)">
                    <g id="Group-3" transform="translate(67.000000, 0.761000)">
                        <mask id="mask-2" fill="white">
                            <use xlink:href="#path-1"></use>
                        </mask>
                        <g id="Clip-2"></g>
                        <path d="M28.4218,96.0297 C27.6028,95.9597 26.7768,95.8597 25.9838,95.6547 C23.7088,95.0667 21.3848,94.5977 19.2518,93.5827 C16.3268,92.1857 13.6888,90.4497 11.9008,87.5887 C10.2928,85.0177 9.3608,82.2467 8.9178,79.2897 C8.7278,78.0237 8.6928,76.7327 8.6268,75.9257 C8.4448,71.1367 9.8128,67.3517 12.4508,63.9637 C15.2538,60.3637 18.9188,58.0687 23.1748,56.5867 C24.7518,56.0357 26.3438,55.6857 28.0088,55.6277 C28.6168,55.6077 29.2288,55.5547 29.8298,55.4637 C31.9038,55.1407 33.9218,55.4087 35.8878,56.0567 C37.6548,56.6407 39.4518,57.1977 41.1238,58.0007 C42.3158,58.5707 43.3668,59.4747 44.4068,60.3227 C47.2438,62.6317 49.3428,65.4807 50.5138,68.9727 C51.4738,71.8367 51.5998,74.7837 51.4378,77.7677 C51.2588,81.0397 50.2488,84.0707 48.6628,86.8947 C47.2368,89.4337 45.3068,91.5117 42.7408,93.0097 C39.8238,94.7157 36.6668,95.4907 33.3608,95.9007 C31.7098,96.1057 30.0698,96.1747 28.4218,96.0297 M16.1378,111.9397 C15.5628,111.2157 15.0368,110.5117 14.9758,109.6467 C14.8668,109.3557 14.8228,109.0477 14.8428,108.7287 C14.8658,108.3867 15.4018,108.3847 15.3798,108.7287 C15.3768,108.7717 15.3808,108.8127 15.3808,108.8537 C15.4068,108.8907 15.4288,108.9337 15.4358,108.9847 C15.4938,109.4207 15.7788,109.7777 16.0348,110.1277 C16.0988,110.1937 16.1658,110.2587 16.2378,110.3147 C17.0268,110.9297 17.0478,111.1977 16.1378,111.9397 M16.0508,112.6607 C15.9478,112.8007 15.8298,112.9147 15.7018,113.0087 C15.6818,113.0547 15.6488,113.0957 15.5868,113.1257 C15.3808,113.2207 15.1788,113.3107 14.9548,113.2367 C14.8228,113.1937 14.7658,113.0807 14.7678,112.9707 C14.7518,112.9667 14.7408,112.9657 14.7248,112.9617 C14.7388,112.9537 14.7538,112.9477 14.7678,112.9397 C14.7838,112.8247 14.8728,112.7167 15.0268,112.7117 C15.2678,112.7017 15.4458,112.5827 15.5878,112.3907 C15.7898,112.1157 16.2558,112.3837 16.0508,112.6607 M14.0018,112.4417 C13.9578,112.4317 13.9168,112.4247 13.8698,112.4127 C13.9278,112.3887 13.9878,112.3657 14.0468,112.3417 C14.0548,112.3307 14.0608,112.3187 14.0718,112.3067 C14.1718,112.2207 14.2778,112.1627 14.3898,112.1217 C14.4188,112.0977 14.4548,112.0787 14.5018,112.0687 C14.5398,112.0607 14.5768,112.0497 14.6148,112.0417 C14.6188,112.0397 14.6228,112.0417 14.6268,112.0397 C14.8078,111.9927 15.0128,111.9007 15.1198,111.7697 C15.3398,111.5027 15.7158,111.8837 15.4988,112.1487 C15.3808,112.2937 15.1758,112.4107 14.9728,112.4907 C14.9408,112.5217 14.9018,112.5477 14.8428,112.5567 C14.8058,112.5647 14.7688,112.5687 14.7318,112.5767 C14.6018,112.6427 14.4688,112.7017 14.3328,112.7567 C14.1358,112.8347 13.9708,112.6197 14.0018,112.4417 M13.5298,111.7757 C13.4268,111.7697 13.2708,111.5927 13.2598,111.4827 C13.2578,111.4657 13.2658,111.4437 13.2698,111.4247 C13.2538,111.3207 13.2838,111.2137 13.3898,111.1627 C13.5588,111.0807 13.7138,111.0567 13.8738,111.0957 C13.9438,111.0847 14.0148,111.0747 14.0858,111.0647 C14.3438,111.0337 14.5948,110.9947 14.8568,111.0117 C15.1008,111.0297 15.2498,111.3847 14.9918,111.5117 C14.6318,111.6857 14.0798,111.9147 13.6568,111.7837 C13.6138,111.7817 13.5718,111.7777 13.5298,111.7757 M13.1818,110.3867 C13.2768,110.1197 13.4888,109.9227 13.7638,109.9687 C13.8388,109.9677 13.9208,109.9927 14.0058,110.0297 C14.1788,110.0237 14.3488,110.0627 14.5098,110.1707 C14.6768,110.2817 14.6888,110.5237 14.5098,110.6337 C14.1828,110.8347 13.7278,110.7917 13.3688,110.7157 C13.2338,110.6877 13.1348,110.5177 13.1818,110.3867 M33.8288,134.8247 C34.8038,135.1627 35.5388,134.5767 35.4858,133.5397 C35.4458,132.7977 35.0748,132.2077 34.6008,131.6687 C34.1008,131.1037 33.3558,130.6057 33.1688,129.9497 C32.9808,129.2857 33.3358,128.4617 33.4678,127.7097 C33.5998,126.9617 33.6098,126.9887 34.3178,126.9107 C35.8358,126.7447 37.3568,126.5867 38.8658,126.3537 C40.1788,126.1527 40.7528,125.3027 40.5538,123.9967 C40.5188,123.7547 40.4678,123.5117 40.3928,123.2817 C40.0558,122.2347 39.7178,121.1897 39.3608,120.1507 C38.8948,118.7897 38.3588,117.4537 37.9438,116.0807 C36.8638,112.5117 35.5418,109.0137 34.7358,105.3657 C34.6928,105.1727 34.6558,104.9787 34.6108,104.7467 C40.5508,106.4747 44.2488,103.8267 46.5188,101.0827 C46.4958,101.0747 46.4758,101.0587 46.4538,101.0507 C46.9848,100.9767 47.3408,100.6587 47.5238,100.2567 C47.5288,100.2487 47.5298,100.2407 47.5348,100.2347 C47.9708,100.3107 48.4038,100.1917 48.7818,99.9007 C48.8468,99.8517 48.8818,99.7897 48.9058,99.7247 C49.1098,99.5217 49.0278,99.0787 48.6548,99.0787 C48.4798,99.0787 48.3698,99.1777 48.3208,99.3047 C48.1628,99.4127 47.9988,99.4927 47.8228,99.5047 C47.8258,99.4807 47.8368,99.4597 47.8378,99.4357 C48.3598,99.1647 48.8158,98.8267 49.1648,98.3327 C49.4448,97.9357 48.7948,97.5627 48.5188,97.9537 C48.3078,98.2547 48.0268,98.4687 47.7198,98.6507 C47.7148,98.6367 47.7138,98.6257 47.7088,98.6117 C47.9678,98.1757 48.1918,97.7227 48.3938,97.2447 C48.5798,96.8007 47.8558,96.6077 47.6708,97.0477 C47.5298,97.3777 47.3788,97.7037 47.2048,98.0197 C47.1548,97.9867 47.1118,97.9497 47.0558,97.9227 C47.1788,97.5567 47.2388,97.1747 47.2838,96.7717 C47.3368,96.2917 46.5888,96.2977 46.5358,96.7717 C46.4988,97.0997 46.4618,97.4617 46.3388,97.7777 C46.0888,97.7917 45.8748,97.8557 45.6948,97.9577 C45.7198,97.8867 45.7458,97.8147 45.7798,97.7507 C45.8158,97.6877 45.8408,97.6157 45.8488,97.5197 L45.8488,97.5157 C45.8738,97.4767 45.8958,97.4357 45.9228,97.3967 C46.1548,96.9887 45.6068,96.6687 45.3168,96.9787 C45.3038,96.9907 45.2858,96.9927 45.2728,97.0067 C45.1828,97.0957 45.1258,97.2327 45.0728,97.3557 C44.7548,97.9557 44.6538,98.6337 44.8198,99.2617 C44.7608,99.5547 44.7748,99.8657 44.8748,100.1467 C44.8868,100.5457 44.6298,100.8477 44.0328,101.4167 C43.8568,101.5847 43.6498,101.7167 43.4518,101.8617 C42.3848,102.6467 41.1708,102.9707 39.8678,103.1317 C38.2018,103.3347 36.6338,103.0477 35.1498,102.3367 C33.8208,101.7017 33.0558,100.5917 32.7998,99.1367 C32.6928,98.5177 32.8268,98.2777 33.4328,98.1387 C33.8778,98.0377 34.3378,98.0027 34.7918,97.9397 C39.6928,97.2797 44.1098,95.4277 48.0228,92.4257 C52.4308,89.0437 55.5908,84.7157 57.4298,79.4637 C59.6308,73.1747 59.6278,66.8557 57.4388,60.5627 C56.2468,57.1367 54.2978,54.0747 52.6748,50.8557 C51.9758,49.4667 50.8338,48.4207 49.9578,47.1707 C49.6808,46.7737 49.3238,46.4297 48.9918,46.0727 C47.7668,44.7507 46.5108,43.4537 45.3138,42.1057 C44.5218,41.2157 43.8768,40.1917 43.0518,39.3367 C40.8818,37.0907 39.5808,34.4007 38.7788,31.4317 C38.7268,31.2407 38.7218,31.0397 38.6768,30.6857 C39.4048,30.7507 40.0618,30.7077 40.6548,30.8777 C43.0648,31.5747 45.8878,29.7737 46.5138,27.4967 C46.6168,27.1197 46.8408,26.7757 46.9758,26.4047 C47.2318,25.6917 47.5118,24.9827 47.6858,24.2487 C47.7858,23.8247 47.6218,23.3987 47.1758,23.1627 C46.7288,22.9247 46.3748,23.1197 45.9858,23.3477 C44.9098,23.9827 43.8418,24.6467 42.7118,25.1727 C41.2898,25.8347 39.9158,26.5417 38.7798,27.6487 C38.6178,27.8067 38.4058,27.9187 38.1728,28.0847 C37.9378,26.9597 37.8178,25.8947 38.0458,24.8537 C38.1638,24.7157 38.2768,24.5727 38.3798,24.4227 C38.7788,23.8437 39.2268,23.2227 39.6358,22.5787 C39.7138,22.4687 39.7948,22.3617 39.8708,22.2527 C40.2258,21.7637 40.5668,21.2717 40.8838,20.7677 C41.0068,20.6117 41.1298,20.4557 41.2388,20.2857 C43.0558,17.4927 45.2608,13.9807 45.8758,10.5007 C46.0888,9.8617 46.1248,9.3167 46.2528,8.2797 C46.3338,7.6217 46.1888,6.9027 45.9698,6.2697 C45.4618,4.8067 45.1458,4.3347 44.1508,3.1607 C43.8348,2.7857 43.4618,2.4557 43.0588,2.1547 C42.6948,1.7977 42.2938,1.4947 41.8578,1.2957 C40.9338,0.8757 40.3818,0.6447 39.7488,0.4907 C39.7278,0.4827 39.7038,0.4747 39.6828,0.4657 L39.6828,0.4747 C39.2258,0.3697 38.7198,0.3007 37.9908,0.2387 C36.8448,0.2427 35.7728,0.5317 34.7808,1.1077 C34.7118,1.1487 34.6518,1.2057 34.5828,1.2487 C33.9668,1.5457 33.5648,1.8677 32.7268,2.5647 C32.1598,3.0357 31.7268,3.6937 31.3558,4.3267 C31.1318,4.7077 30.9798,5.0357 30.8578,5.3497 C30.7818,5.4967 30.7078,5.6427 30.6378,5.7977 C30.4938,6.0747 30.3728,6.3657 30.2758,6.6707 C30.2758,6.6727 30.2738,6.6747 30.2738,6.6747 C30.2198,6.8267 30.1588,6.9807 30.0948,7.1427 C28.9888,6.6647 27.8248,6.3247 26.4878,6.2677 C25.5208,6.2267 24.6118,6.4127 23.7808,6.7597 C23.1278,6.9747 22.5198,7.3107 21.9758,7.8047 C21.6048,8.1427 21.2728,8.5027 20.9758,8.8837 C20.3408,9.6527 19.8398,10.5417 19.5068,11.4847 C18.7668,13.5847 19.2418,15.8127 20.2508,17.7227 C21.7398,20.5377 25.0298,22.1337 27.8838,23.1297 C28.3058,23.2757 28.7478,23.3967 29.2018,23.4967 C29.9318,23.8437 30.7178,24.0867 31.4888,24.3327 C32.6408,24.7037 33.6398,25.3927 34.7788,25.7657 C34.7898,25.7737 34.8028,25.7817 34.8148,25.7897 C35.0178,25.9207 35.2358,26.2077 35.2438,26.4297 C35.2708,27.1197 35.1968,27.8107 35.1548,28.6687 C34.8328,28.4087 34.6458,28.2717 34.4798,28.1177 C34.1438,27.8047 33.8428,27.4497 33.4868,27.1667 C32.3278,26.2367 31.0318,25.6367 29.5678,25.2737 C27.8618,24.8477 26.1598,25.0217 24.4548,24.9657 C24.0368,24.9537 23.7308,25.1687 23.6778,25.5917 C23.6298,25.9747 23.8888,26.1857 24.2338,26.3327 C24.5078,26.4497 24.8078,26.5847 25.0038,26.7957 C25.6898,27.5357 26.4078,28.2597 26.9818,29.0827 C28.4038,31.1197 30.3638,31.6607 32.6928,31.3087 C33.2328,31.2287 33.7708,31.1427 34.4128,31.0437 C34.3738,31.2777 34.3738,31.3697 34.3428,31.4537 C34.2678,31.6547 34.1848,31.8517 34.0948,32.0457 C32.3778,35.6957 29.6828,38.4047 26.1178,40.2487 C24.8408,40.9087 23.5098,41.4617 22.2238,42.1037 C20.6378,42.8947 19.0428,43.6747 17.5078,44.5607 C15.4608,45.7427 13.6468,47.2567 11.8908,48.8287 C7.4738,52.7837 4.6038,57.6667 3.2118,63.4257 C2.5968,65.9727 2.4788,68.5667 2.4188,71.1727 C2.3658,73.4787 2.5258,75.7587 3.0558,78.0067 C5.4868,88.3347 11.9808,94.5787 22.2298,97.0097 C23.8938,97.4047 25.5878,97.6747 27.2688,97.9967 C28.1958,98.1727 28.2468,98.3147 27.9338,99.2227 C27.5898,100.2227 26.9988,101.0707 26.4298,101.9377 C25.2488,103.7367 23.9208,105.4147 22.2518,106.7877 C20.8778,107.9167 19.4038,108.8947 17.7998,109.6777 C17.0308,110.0527 16.6948,110.0437 16.1598,109.3847 C15.9698,109.1527 15.8408,108.8677 15.6848,108.6057 C15.2988,107.9637 14.9708,107.9247 14.4958,108.4707 C14.3848,108.5997 14.2758,108.7267 14.1268,108.8987 C13.9148,108.5977 13.7458,108.3597 13.5108,108.0277 C14.1148,107.6447 14.6288,107.2637 15.1888,106.9747 C16.2748,106.4127 17.3938,105.9167 18.4818,105.3577 C18.9118,105.1367 19.3388,104.8697 19.6868,104.5417 C20.1538,104.0997 20.2108,103.3007 19.9318,102.7467 C19.6338,102.1567 19.1218,102.0337 18.5388,102.1097 C18.1808,102.1587 17.8068,102.2307 17.4858,102.3847 C16.7088,102.7597 16.0008,103.2467 15.4868,103.9617 C14.6518,105.1217 13.8228,106.2857 12.9548,107.5047 C12.6418,107.2097 12.3138,106.9007 12.0218,106.6277 C12.0658,105.7447 12.4118,105.1587 13.0718,104.6527 C13.5658,104.2757 13.9148,103.6937 14.2838,103.1707 C15.0528,102.0847 15.3298,100.7267 16.2998,99.7227 C16.8888,99.1137 16.5678,98.0097 15.8688,97.5507 C15.1478,97.0767 14.1178,97.2957 13.5888,98.0357 C13.0848,98.7427 13.2338,99.7227 13.9388,100.2427 C14.1528,100.4007 14.4018,100.5117 14.6238,100.6387 C14.1838,102.3797 12.5668,104.6467 11.2788,104.9067 C11.3248,104.6797 11.3718,104.4767 11.4058,104.2717 C11.6328,102.9107 11.8118,101.5437 11.5318,100.1707 C11.4138,99.5887 11.3778,99.0937 11.7238,98.5277 C12.2148,97.7247 11.7688,96.7677 10.8908,96.4357 C10.0458,96.1177 9.0998,96.5567 8.8018,97.4067 C8.4928,98.2897 8.9628,99.1567 9.8868,99.3987 C10.1188,99.4597 10.3578,99.4907 10.5688,99.5297 C11.1318,101.1707 11.0618,103.8227 10.4438,104.8817 C9.5478,103.6957 8.6518,102.5097 7.7698,101.3417 C8.2938,100.1547 8.2148,99.4147 7.5288,98.8967 C6.9718,98.4747 6.2568,98.5157 5.5738,99.0087 C4.8908,99.5027 4.6478,100.2247 4.9278,100.9337 C5.2378,101.7167 5.9398,102.0067 7.2398,101.8477 C8.1528,102.9337 9.0458,104.0747 9.7528,105.5067 C7.6578,105.7447 6.0818,104.8127 4.5228,103.8987 C4.6548,102.7097 4.3858,102.0917 3.6678,101.7917 C2.9888,101.5097 2.2808,101.7307 1.8108,102.3717 C1.3228,103.0357 1.2858,103.6837 1.7008,104.2347 C2.1978,104.8987 2.9328,104.9687 4.1278,104.4557 C5.6578,105.4187 7.2968,106.1747 9.1408,106.4677 C7.2578,107.4397 5.3178,107.8247 3.2798,107.3007 C3.1598,106.9687 3.0948,106.6977 2.9688,106.4577 C2.6748,105.8947 2.0158,105.5847 1.4268,105.6977 C0.8158,105.8167 0.3478,106.3167 0.2508,106.9537 C0.1498,107.6197 0.3688,108.1467 0.8908,108.4557 C1.4468,108.7837 2.0358,108.7917 2.5238,108.3847 C2.8978,108.0727 3.2118,108.0507 3.6768,108.1317 C5.6658,108.4867 7.5788,108.1467 9.3848,107.2717 C10.7028,106.6337 11.4708,106.8577 12.2258,108.2177 C11.5518,108.3087 10.8928,108.4127 10.2288,108.4827 C9.3188,108.5787 8.5098,108.9707 7.7908,109.4727 C7.3108,109.8067 6.9168,110.3307 6.6208,110.8457 C6.3648,111.2957 6.3128,111.8757 6.7478,112.3007 C7.1698,112.7117 7.7148,112.8837 8.2668,112.6197 C8.8938,112.3207 9.5398,112.0097 10.0738,111.5767 C11.0628,110.7737 11.9768,109.8797 12.9558,108.9907 C13.0828,109.1387 13.1748,109.2467 13.2638,109.3517 C12.6368,109.9927 12.7448,110.0137 12.5648,110.9657 C12.4218,111.7207 12.9978,112.0527 13.1998,112.5907 C13.4818,113.3387 14.6878,113.7287 16.0088,113.5667 C17.4708,115.9007 18.6178,118.3777 19.0368,121.1507 C19.0898,121.5007 19.0948,121.9337 19.6008,121.9617 C19.9378,121.9807 20.0418,121.6837 19.9358,120.9927 C19.6648,119.2267 19.1768,117.5297 18.3408,115.9417 C17.7438,114.8107 17.1568,113.6747 16.5578,112.5237 C17.1408,111.8987 17.6888,111.3107 18.5468,110.9867 C20.9958,110.0567 23.2448,108.7677 25.1068,106.8817 C25.2568,106.7307 25.4588,106.6317 25.7628,106.4207 C25.6568,106.8967 25.6068,107.1957 25.5238,107.4847 C24.8258,109.9247 24.1288,112.3637 23.4168,114.7977 C22.7738,116.9987 22.1058,119.1917 21.4578,121.3887 C21.1358,122.4827 21.0058,123.6017 20.9968,124.7427 C20.9898,125.4657 21.2928,125.9887 21.8928,126.3287 C22.2598,126.5377 22.6648,126.7447 23.0728,126.7997 C24.2828,126.9597 25.5028,127.0497 26.7188,127.1507 C27.1668,127.1897 27.6168,127.1877 28.1118,127.2077 C28.2238,128.3087 28.3268,129.3287 28.4288,130.3387 C27.4648,130.7657 26.7888,131.4397 26.2328,132.2077 C25.9418,132.6077 25.7368,133.1337 25.6788,133.6257 C25.5648,134.5887 26.3198,135.1857 27.2598,134.9477 C27.5808,134.8657 27.8918,134.7097 28.1818,134.5457 C29.0978,134.0197 29.6238,133.1527 30.1118,132.2617 C30.6028,131.3677 30.5428,131.0117 29.8008,130.2487 C29.9608,129.2717 30.1228,128.2837 30.2918,127.2587 L31.4108,127.2587 C31.5058,127.9657 31.6078,128.6237 31.6778,129.2857 C31.7278,129.7597 31.8438,130.2267 31.4498,130.6727 C31.3008,130.8387 31.3668,131.2587 31.4318,131.5417 C31.6718,132.5787 32.2098,133.4707 32.9198,134.2467 C33.1548,134.5047 33.4958,134.7097 33.8288,134.8247" id="Fill-1" fill="#00A8A0" mask="url(#mask-2)"></path>
                    </g>
                    <path d="M172.038,88.5524 C173.192,90.9314 172.19,92.5504 169.708,92.4174 C168.631,93.4234 167.595,94.4174 166.532,95.3804 C162.614,98.9254 158.077,99.9664 152.979,98.6934 C152.326,98.5314 151.663,98.4024 151.024,98.1984 C144.735,96.1874 140.616,92.0874 139.053,85.5994 C138.559,83.5504 138.668,81.4664 139.005,79.3964 C139.029,79.2474 139.048,79.1014 139.067,78.9704 C137.823,78.0324 137.455,77.2364 137.778,76.1894 C138.145,75.0014 139.04,74.6164 140.235,74.6674 C140.663,73.6094 141.112,72.5704 141.505,71.5134 C142.354,69.2324 143.702,67.2674 145.466,65.6304 C147.426,63.8124 149.884,62.9094 152.467,62.4194 C154.862,61.9664 157.267,61.9764 159.64,62.6984 C160.832,63.0624 162.059,63.3204 163.268,63.6244 C163.654,63.1974 164.003,62.7224 164.438,62.3514 C164.802,62.0424 165.246,61.7944 165.696,61.6384 C165.925,61.5604 166.319,61.6674 166.496,61.8394 C166.626,61.9644 166.593,62.3534 166.512,62.5834 C166.32,63.1284 166.046,63.6444 165.831,64.1814 C165.771,64.3354 165.805,64.5254 165.789,64.8204 C166.306,64.4154 166.735,64.0854 167.159,63.7474 C168.874,62.3724 170.838,61.8654 173,62.0894 C173.242,62.1134 173.556,62.2434 173.683,62.4294 C173.893,62.7304 173.645,62.9844 173.404,63.2024 C172.481,64.0424 171.563,64.8944 170.649,65.7474 C170.432,65.9504 170.24,66.1834 169.889,66.5664 C170.514,66.3984 170.931,66.2614 171.357,66.1814 C171.714,66.1134 172.091,66.0524 172.443,66.1054 C172.667,66.1384 172.938,66.3454 173.038,66.5484 C173.091,66.6594 172.868,66.9744 172.7,67.1094 C172.038,67.6384 171.349,68.1304 170.629,68.6674 C175.423,75.0444 175.841,81.6574 172.038,88.5524 M189.289,44.3864 C187.651,41.2824 184.958,39.9154 181.561,39.8414 C178.922,39.7844 176.772,42.0074 176.856,44.6504 C176.9,45.9864 177.479,47.0874 178.729,47.6914 C179.878,48.2454 181.205,47.9704 182.127,47.0814 C182.807,46.4274 182.992,45.6614 182.627,45.0254 C182.251,44.3704 181.371,44.0504 180.526,44.3004 C180.208,44.3964 179.911,44.5724 179.612,44.7244 C179.406,44.8274 179.211,44.9544 178.992,45.0814 C178.669,43.3964 179.819,42.0734 181.455,42.2204 C182.025,42.2734 182.588,42.4584 183.143,42.6184 C184.043,42.8824 184.554,43.5484 184.867,44.3904 C185.657,46.5034 185.575,48.5704 184.594,50.6184 C183.683,52.5234 182.303,53.9544 180.341,54.7144 C178.744,55.3354 177.07,55.7044 175.322,55.6324 C173.795,55.5684 172.264,55.5814 170.734,55.5254 C169.665,55.4864 168.6,55.3784 167.531,55.3144 C165.242,55.1734 162.949,54.8844 160.663,54.9434 C158.133,55.0094 155.574,55.1984 153.094,55.6774 C145.748,57.0894 140.333,61.2084 136.921,67.8684 C134.749,72.1034 134.093,76.6304 134.731,81.3354 C135.53,87.2144 138.138,92.1304 142.663,96.0034 C142.867,96.1774 143.063,96.3614 143.273,96.5504 C142.841,97.1894 142.436,97.7844 141.99,98.4414 C141.157,98.1404 140.331,97.9074 139.562,97.5524 C137.071,96.4004 135.469,94.3164 133.987,92.1164 C133.972,92.0934 133.964,92.0724 133.948,92.0504 C134.04,91.8534 134.093,91.6464 134.093,91.4454 C134.093,91.2944 134.065,91.1594 134.029,91.0324 C134.304,90.6284 134.459,90.1634 134.547,89.6734 C134.632,89.2004 133.909,88.9994 133.825,89.4744 C133.786,89.6914 133.735,89.9074 133.664,90.1134 C133.46,89.8824 133.176,89.7124 132.866,89.6364 C132.876,89.5874 132.876,89.5324 132.862,89.4744 C132.788,89.1384 132.788,88.7944 132.862,88.4584 C132.967,87.9884 132.245,87.7864 132.142,88.2594 C132.042,88.7144 132.043,89.1674 132.136,89.6224 C132.126,89.6244 132.114,89.6244 132.104,89.6284 C131.969,89.6654 131.852,89.7204 131.743,89.7824 C131.539,89.3234 131.349,88.8614 131.272,88.3534 C131.202,87.8764 130.48,88.0794 130.551,88.5504 C130.647,89.2004 130.925,89.7884 131.194,90.3804 C131.092,90.4974 131.016,90.6284 130.958,90.7654 C130.633,90.4664 130.392,90.0834 130.206,89.6654 C130.012,89.2264 129.367,89.6074 129.559,90.0424 C129.835,90.6634 130.251,91.2344 130.827,91.5994 C130.833,91.7414 130.848,91.8864 130.872,92.0294 C130.874,92.0404 130.878,92.0504 130.88,92.0604 C130.548,92.0834 130.214,91.9764 129.96,91.7414 C129.606,91.4134 129.076,91.9434 129.431,92.2714 C129.954,92.7554 130.633,92.9064 131.29,92.7384 C131.555,92.9604 131.907,93.0914 132.263,93.1094 C132.287,93.1794 132.315,93.2494 132.335,93.3294 C132.892,95.4234 134.099,97.2164 135.278,99.0034 C135.614,99.5094 136.013,99.9884 136.45,100.4094 C137.3,101.2284 138.2,101.9994 139.104,102.8124 C138.968,103.0874 138.811,103.3844 138.673,103.6894 C137.856,105.4724 137.054,107.2734 136.864,109.2454 C136.746,110.4894 136.752,111.7514 136.806,113.0014 C136.858,114.2514 136.903,115.5274 137.193,116.7344 C137.71,118.8724 138.788,120.7714 140.231,122.4334 C143.278,125.9394 147.184,127.8394 151.746,128.4504 C152.338,128.5294 152.949,128.4604 153.658,128.4604 C153.406,128.9604 153.17,129.3804 152.977,129.8204 C152.579,130.7304 152.594,131.6074 153.277,132.3944 C154.007,133.2364 154.883,133.1014 155.242,132.0624 C155.389,131.6384 155.419,131.1674 155.454,130.7144 C155.508,130.0154 155.454,129.3044 155.565,128.6154 C155.774,127.3144 155.635,127.0914 154.344,126.5774 C153.862,126.3884 153.333,126.3124 152.861,126.1054 C150.813,125.2164 149.3,123.7984 148.516,121.4994 C148.93,121.5974 149.268,121.6244 149.557,121.7614 C150.586,122.2474 151.67,122.5214 152.778,122.7694 C154.186,123.0854 155.543,123.0794 156.937,122.6634 C158.924,122.0724 160.707,121.2204 161.893,119.4234 C161.934,119.3614 162.028,119.3314 162.082,119.2944 C162.386,119.8454 162.608,120.4214 162.977,120.8824 C163.539,121.5834 164.575,121.3904 164.906,120.5564 C165.077,120.1264 165.118,119.6834 164.854,119.2384 C164.416,118.5014 164.029,117.7364 163.605,116.9914 C163.395,116.6204 163.162,116.2574 162.914,115.9114 C162.659,115.5584 162.279,115.5794 161.91,115.6574 C161.559,115.7304 161.426,115.9974 161.401,116.3314 C161.388,116.5114 161.376,116.6914 161.363,116.8744 C160.34,117.2984 159.343,117.6464 158.242,117.5794 C156.398,117.4704 154.825,116.6954 153.392,115.5974 C152.582,114.9784 151.876,114.2434 151.559,113.2414 C151.024,111.5524 150.504,109.8594 150.016,108.1564 C149.919,107.8234 150.003,107.4414 150.003,106.9934 C150.449,107.1164 150.775,107.1914 151.093,107.2944 C153.396,108.0364 155.74,108.0684 158.073,107.5564 C159.5,107.2414 160.885,106.7264 162.281,106.2734 C162.296,106.2694 162.308,106.2694 162.322,106.2654 C162.417,106.3234 162.52,106.3664 162.627,106.4024 C162.743,107.0754 163.156,107.6834 163.931,107.6264 C164.41,107.5914 164.413,106.8434 163.931,106.8784 C163.63,106.9004 163.463,106.7044 163.385,106.4524 C163.48,106.4314 163.574,106.3984 163.665,106.3574 C164.266,106.8724 165.112,107.1654 165.803,106.7344 C166.213,106.4804 165.837,105.8314 165.426,106.0874 C165.066,106.3124 164.619,106.1564 164.268,105.8904 C164.289,105.8614 164.316,105.8374 164.337,105.8064 C164.936,105.9314 165.574,105.8184 166.084,105.4254 C166.461,105.1364 166.09,104.4864 165.707,104.7794 C165.385,105.0274 164.97,105.1504 164.574,105.1054 C164.577,105.0664 164.586,105.0314 164.586,104.9914 L164.586,104.8224 C164.586,104.8044 164.58,104.7884 164.578,104.7714 C165.092,104.6654 165.58,104.3124 165.844,103.8864 C166.1,103.4764 165.452,103.1014 165.198,103.5094 C165.028,103.7824 164.694,104.0234 164.359,104.0464 C164.212,103.8124 164.003,103.6164 163.753,103.4904 C163.904,103.4254 164.061,103.3654 164.218,103.3124 C164.672,103.1564 164.477,102.4334 164.018,102.5894 C163.418,102.7944 162.814,103.0604 162.368,103.5234 C162.249,103.5894 162.137,103.6674 162.04,103.7634 C162.02,103.7414 162.005,103.7184 161.984,103.6974 C161.941,103.7924 161.9,103.8864 161.858,103.9804 C161.85,103.9914 161.844,104.0054 161.835,104.0174 C160.87,104.2224 159.925,104.4704 158.962,104.6134 C157.724,104.7964 156.479,104.9394 155.223,104.6654 C153.373,104.2634 151.723,103.5814 150.689,101.8554 C150.368,101.3204 150.267,100.8654 150.793,100.3664 C151.008,100.4074 151.246,100.4474 151.48,100.5034 C154.425,101.2304 157.405,101.4094 160.407,100.9844 C167.282,100.0094 172.639,96.5954 176.512,90.8494 C177.108,89.9624 177.58,88.9914 178.166,88.0974 C180.467,84.6034 182.392,80.9504 183.406,76.8494 C183.912,74.8064 184.638,72.8184 185.264,70.8044 C185.873,68.8514 186.508,66.9044 187.086,64.9414 C187.836,62.3904 188.542,59.8274 189.268,57.2714 C189.704,55.7414 190.181,54.2244 190.569,52.6854 C190.764,51.9194 190.857,51.1184 190.905,50.3294 C191.035,48.1734 190.268,46.2454 189.289,44.3864" id="Fill-4" fill="#00A8A0"></path>
                    <g id="Group-8" transform="translate(0.000000, 41.761000)">
                        <mask id="mask-4" fill="white">
                            <use xlink:href="#path-3"></use>
                        </mask>
                        <g id="Clip-7"></g>
                        <path d="M40.3852,62.9515 C30.2892,62.9285 22.1512,54.7405 22.1672,44.6215 C22.1832,34.4865 30.3072,26.3695 40.4402,26.3675 C50.6102,26.3615 58.7142,34.5145 58.6872,44.7175 C58.6592,54.8405 50.4952,62.9725 40.3852,62.9515 M45.5592,89.4555 C45.9782,88.7505 46.3672,88.0045 46.9142,87.4065 C47.6532,86.5995 48.8952,86.6485 49.7152,87.3775 C49.9672,87.6015 50.2032,87.8425 50.4632,88.0555 C51.1462,88.6135 51.8012,89.2215 52.5372,89.6975 C53.5472,90.3495 54.7152,90.1545 55.5392,89.2815 C56.3322,88.4415 56.8062,87.4535 56.6002,86.2795 C56.4592,85.4745 56.2262,84.6765 55.9472,83.9045 C55.3972,82.3855 54.7342,80.9025 54.2162,79.3735 C53.4822,77.2015 52.9042,74.9765 52.1242,72.8245 C51.8142,71.9695 51.9842,71.4335 52.5852,70.8985 C52.8582,70.6545 53.1122,70.3815 53.4082,70.1685 C54.2032,69.5975 54.9862,69.0025 55.8292,68.5105 C56.6862,68.0105 57.2962,67.2735 57.9102,66.5415 C58.3042,66.4125 58.5992,66.1335 58.8632,65.7655 C59.2062,65.8465 59.5662,65.7875 59.9082,65.6355 C60.3472,65.4375 59.9672,64.7935 59.5302,64.9885 C59.3742,65.0585 59.2262,65.0765 59.0822,65.0495 C59.0842,64.9725 59.0822,64.8965 59.0762,64.8205 C59.6702,64.5845 60.1472,64.0195 60.4782,63.5065 C60.7412,63.0975 60.0942,62.7245 59.8322,63.1275 C59.6242,63.4495 59.2692,63.9335 58.8642,64.1155 C58.8492,64.0945 58.8382,64.0805 58.8342,64.0825 C58.8232,64.0625 58.8092,64.0435 58.7982,64.0235 C59.1982,63.5925 59.4592,63.0555 59.5312,62.4435 C59.5892,61.9655 58.8402,61.9695 58.7832,62.4435 C58.7362,62.8365 58.5502,63.1875 58.2902,63.4765 C58.2252,63.4375 58.1582,63.3985 58.0852,63.3695 C58.2902,62.9105 58.3432,62.3515 58.3472,61.8835 C58.3502,61.4005 57.6022,61.4005 57.5982,61.8835 C57.5952,62.3265 57.5722,62.9245 57.2612,63.2775 C57.0222,63.3035 56.7942,63.3735 56.6002,63.5025 C56.6572,63.2015 56.7952,62.9025 56.8992,62.6055 C57.0592,62.1485 56.3362,61.9535 56.1782,62.4065 C55.9362,63.0965 55.6692,63.7545 55.9532,64.4285 C55.9302,64.5315 55.9152,64.6405 55.9152,64.7505 L55.9152,65.1255 C55.9152,65.2135 55.9262,65.2975 55.9422,65.3815 C54.9702,66.0335 52.9832,66.6255 51.8392,66.6835 C50.2792,66.7625 49.1202,66.2835 48.5072,64.4785 C48.5252,64.4555 48.5362,64.4205 48.5592,64.4065 C48.7472,64.3055 48.9322,64.2015 49.1252,64.1115 C55.3272,61.2115 59.3952,56.4635 61.4292,49.9395 C62.4032,46.8145 62.4582,43.6175 62.2502,40.3965 C62.0902,37.9085 61.6762,35.4595 60.6952,33.1625 C59.0202,29.2425 56.8042,25.6705 53.5062,22.8855 C52.5772,22.0995 51.5802,21.3345 50.4932,20.8085 C48.6782,19.9335 46.8432,19.1055 45.0682,18.1385 C44.2392,17.6855 43.4892,17.2285 42.9982,16.4145 C42.4492,15.5065 41.9842,14.5585 41.6232,13.5105 C41.9912,13.3985 42.2462,13.2955 42.5112,13.2465 C43.5932,13.0455 44.6882,12.8985 45.7582,12.6505 C46.3082,12.5235 46.8672,12.2915 47.3312,11.9765 C47.8352,11.6355 48.0492,11.0565 47.8972,10.4315 C47.7452,9.8035 47.2952,9.3925 46.6712,9.3535 C46.0772,9.3185 45.4272,9.3345 44.8822,9.5415 C43.6782,10.0005 42.6032,10.7175 41.6482,11.5975 C41.4752,11.7565 41.2942,11.9085 41.0382,12.1315 C40.8672,11.5375 40.7202,11.0435 40.5802,10.5475 C40.4422,10.0535 40.3122,9.5565 40.1842,9.0845 C40.9822,8.3305 41.9622,8.1175 42.8342,7.6935 C43.6532,7.2955 44.4492,6.8385 45.2152,6.3445 C45.5042,6.1565 45.7362,5.8205 45.8962,5.5025 C46.1702,4.9595 46.2292,4.3835 45.8082,3.8595 C45.4082,3.3635 44.8602,3.3405 44.3002,3.4655 C43.9762,3.5355 43.6372,3.6295 43.3602,3.8035 C42.8452,4.1275 42.3352,4.4765 41.8882,4.8855 C41.2202,5.4985 40.6072,6.1705 39.9332,6.8535 C39.8652,6.5665 39.8062,6.3045 39.7412,6.0455 C39.6332,5.6215 39.7522,5.3205 40.0892,5.0045 C41.3582,3.8065 41.3232,2.4125 40.0352,1.1765 C39.2942,0.4655 38.4182,0.1665 37.4252,0.5125 C36.3652,0.8835 35.6802,1.6375 35.5132,2.7695 C35.2812,4.3475 36.1022,5.4245 37.6972,5.6935 C37.8442,5.7195 37.9892,5.7525 38.2012,5.7935 C38.2782,6.4025 38.3512,6.9925 38.4542,7.8085 C37.8592,7.4165 37.4302,7.1425 37.0112,6.8555 C36.4192,6.4495 35.8052,6.1115 35.0532,6.2345 C34.2592,6.3655 33.8942,7.0295 34.2852,7.7265 C34.4702,8.0585 34.7732,8.3815 35.1012,8.5665 C35.9542,9.0475 36.8492,9.4535 37.8822,9.3405 C38.1152,9.3125 38.3542,9.3555 38.6362,9.3695 C38.8982,10.4025 39.1492,11.3945 39.4292,12.4965 C39.1252,12.4395 38.9502,12.4265 38.7892,12.3735 C38.1812,12.1685 37.5782,11.9475 36.9722,11.7365 C36.3452,11.5155 35.7152,11.4725 35.0952,11.7545 C34.3222,12.1035 34.1332,12.6385 34.5022,13.3905 C35.0412,14.4925 36.3112,15.0475 37.6152,14.7545 C38.2912,14.6015 38.9672,14.4515 39.7652,14.2735 C39.7262,14.9615 39.7412,15.5435 39.6402,16.1035 C39.5862,16.4045 39.3962,16.7655 39.1522,16.9315 C38.2722,17.5355 37.3562,18.0785 36.2492,18.2115 C33.6152,18.5295 31.1012,19.2715 28.7242,20.4555 C23.9992,22.8065 20.1392,26.1705 17.0862,30.4695 C16.5262,31.2565 16.2132,31.4005 15.2982,31.1175 C14.9002,30.9945 14.4902,30.7915 14.1852,30.5135 C13.6242,30.0005 13.2022,29.3655 12.8812,28.5645 C13.6302,27.8305 14.3732,27.1075 15.1092,26.3795 C15.6522,25.8425 16.2092,25.3165 16.7202,24.7505 C17.2782,24.1295 17.4702,23.3495 17.4502,22.5355 C17.4212,21.3795 16.3362,20.7505 15.2992,21.2775 C15.0582,21.3985 14.8122,21.5645 14.6472,21.7715 C14.1392,22.4185 13.6122,23.0605 13.1972,23.7655 C12.5802,24.8165 12.1432,25.9535 11.9722,27.3265 C11.0032,26.1155 10.1372,25.0315 9.2582,23.9335 C9.4802,23.6665 9.6722,23.4675 9.8272,23.2425 C10.6252,22.0885 11.4422,20.9455 12.1972,19.7625 C12.6862,18.9925 12.8042,18.1035 12.7422,17.1995 C12.6672,16.0945 11.7772,15.5435 10.7292,15.9315 C10.1262,16.1545 9.7142,16.5885 9.3542,17.0995 C8.7182,18.0025 8.4602,19.0315 8.3292,20.1035 C8.2312,20.9085 8.1372,21.7115 8.0262,22.6465 C7.5082,22.2075 7.0992,21.8555 6.6842,21.5085 C6.2442,21.1385 5.8002,20.7715 5.3982,20.4395 C5.7002,18.4925 5.1802,17.2055 3.8932,16.5765 C2.8652,16.0765 1.6552,16.3795 0.7462,17.3635 C-0.0638,18.2445 -0.2378,19.6095 0.3392,20.5995 C0.6722,21.1725 1.1432,21.5825 1.7442,21.8735 C2.5802,22.2735 3.3972,22.1465 4.1962,21.8205 C5.0452,22.7175 5.8532,23.5705 6.7492,24.5175 C6.4682,24.5785 6.3322,24.6255 6.1942,24.6335 C5.2782,24.6815 4.3612,24.7225 3.4452,24.7675 C2.6932,24.8035 1.9932,24.9985 1.4122,25.4965 C0.9412,25.8985 0.8372,26.4375 1.0102,27.0025 C1.1762,27.5395 1.6342,27.7525 2.1612,27.7305 C2.7652,27.7035 3.3862,27.6795 3.9662,27.5275 C5.3492,27.1685 6.6952,26.6915 7.9172,25.8265 C8.6782,26.8855 9.5432,27.7815 10.1582,29.0085 C9.7072,28.9715 9.3782,28.9375 9.0472,28.9165 C8.5602,28.8875 8.0682,28.8105 7.5862,28.8495 C6.2952,28.9615 5.1322,29.3555 4.3502,30.4945 C3.7202,31.4145 4.1342,32.3875 5.2592,32.4695 C5.7912,32.5085 6.3602,32.4205 6.8742,32.2655 C8.3632,31.8185 9.8332,31.3085 11.3132,30.8205 C12.3242,32.1855 13.3102,35.1705 13.2962,36.8065 C13.2932,37.1425 13.3082,37.4805 13.3402,37.8145 C13.4412,38.8795 13.5322,39.9455 13.6662,41.0065 C13.9262,43.0665 14.0572,45.1585 14.5152,47.1785 C16.0502,53.9295 19.9142,59.0825 25.7272,62.7675 C28.1012,64.2735 30.7502,65.1855 33.5162,65.6375 C35.2622,65.9205 37.0492,65.9535 38.8172,66.0965 C39.1072,66.1195 39.3972,66.1395 39.7482,66.1665 C39.6632,66.8815 39.6312,67.4945 39.5012,68.0845 C39.4502,68.3125 39.2182,68.5995 39.0032,68.6745 C37.9982,69.0235 36.9842,69.4825 35.9462,69.5705 C34.5872,69.6815 33.2002,69.5085 31.8282,69.4085 C31.6252,69.3945 31.4712,69.3575 31.3382,69.3085 C31.3172,68.7605 30.9822,68.2755 30.5302,67.9675 C30.4012,67.3575 30.0772,66.8105 29.5392,66.4555 C29.1352,66.1875 28.7612,66.8365 29.1612,67.0995 C29.3672,67.2365 29.5162,67.4245 29.6272,67.6355 C29.5762,67.6315 29.5262,67.6195 29.4752,67.6195 C29.2092,67.6195 28.9772,67.6855 28.7632,67.7775 C28.2982,67.3655 27.9602,66.8225 27.8082,66.2115 C27.6932,65.7425 26.9712,65.9415 27.0872,66.4085 C27.2592,67.1015 27.6372,67.7225 28.1422,68.2155 C28.0582,68.3105 27.9932,68.4225 27.9262,68.5335 C27.3312,68.3065 26.9842,67.6605 26.6802,67.1195 C26.4442,66.6975 25.7982,67.0745 26.0342,67.4965 C26.4372,68.2175 26.9012,68.9085 27.6322,69.2095 C27.6132,69.2955 27.6022,69.3835 27.5952,69.4715 C27.0642,69.5155 26.5492,69.3385 26.1542,68.9145 C25.8252,68.5585 25.2972,69.0905 25.6252,69.4435 C26.1642,70.0235 26.9382,70.2975 27.7002,70.2215 C27.7362,70.3125 27.7752,70.4045 27.8282,70.4965 C27.8492,70.5315 27.8792,70.5625 27.9032,70.5975 C27.6372,70.7095 27.3602,70.7505 27.0452,70.6015 C26.6112,70.3945 26.2312,71.0415 26.6672,71.2485 C27.3602,71.5745 27.9002,71.4285 28.4782,71.1335 C29.0582,71.4865 29.8192,71.5745 30.3882,71.1685 C30.4592,71.1175 30.5092,71.0625 30.5712,71.0125 C30.6812,71.0515 30.7922,71.0995 30.9102,71.1665 C32.1542,71.8735 33.3332,72.7115 34.7802,73.0175 C35.9452,73.2645 37.0952,73.5845 38.2482,73.8855 C38.4462,73.9355 38.6272,74.0515 38.8842,74.1665 C38.7612,75.5195 38.6872,76.8615 38.5092,78.1895 C38.0312,81.7655 38.2532,85.2655 39.5122,88.6745 C39.9002,89.7225 40.4112,90.6835 41.2652,91.4305 C42.5622,92.5605 43.8892,92.3855 44.8172,90.9285 C45.1112,90.4675 45.2782,89.9285 45.5592,89.4555" id="Fill-6" fill="#00A8A0" mask="url(#mask-4)"></path>
                    </g>
                    <path d="M86.1464,80.1344 C86.0704,81.3234 85.2304,82.2414 84.0554,82.3224 C83.1844,82.3824 82.2814,82.3084 81.4224,82.1424 C80.3914,81.9434 79.7034,81.2694 79.4084,80.2244 C79.1544,79.3234 79.0314,78.4134 79.3264,77.5154 C79.8284,75.9784 81.1084,75.2004 82.9134,75.2774 C84.8414,75.3574 85.7374,76.1184 86.0484,78.0364 C86.1604,78.7244 86.1914,79.4394 86.1464,80.1344 M85.8324,75.3454 C85.8574,75.3124 85.8764,75.2734 85.8774,75.2224 C85.8834,75.0584 85.9494,74.8944 86.0054,74.7414 C86.0424,74.6444 86.0904,74.5524 86.1424,74.4644 C86.1634,74.4274 86.1874,74.3924 86.2144,74.3594 C86.2274,74.3454 86.2584,74.3234 86.2704,74.3124 C86.2874,74.3064 86.3034,74.2984 86.3204,74.2924 C86.5594,74.2264 86.5194,73.8144 86.2604,73.8474 C86.2384,73.8514 86.2224,73.8614 86.2014,73.8664 C86.2014,73.8644 86.2004,73.8594 86.2004,73.8574 C86.1534,73.8704 86.1054,73.8884 86.0594,73.9074 C86.0424,73.9134 86.0284,73.9194 86.0124,73.9254 C86.0064,73.9274 86.0004,73.9314 85.9954,73.9334 C85.9334,73.9564 85.8754,73.9864 85.8274,74.0234 C85.5204,74.2084 85.2464,74.5034 85.1154,74.8234 C84.9354,74.7344 84.7444,74.6384 84.5544,74.5444 C84.5774,74.1674 84.6974,73.8294 84.8844,73.4954 C84.9974,73.2924 84.7744,73.0794 84.5744,73.1854 C84.2414,73.3614 83.9714,73.6774 83.8174,74.0344 C83.5354,74.3124 83.1664,74.3414 82.7484,74.2864 C82.6284,73.9784 82.5694,73.6404 82.6274,73.3144 C82.6634,73.1114 82.4114,72.9054 82.2484,73.0934 C82.2084,73.1384 82.1734,73.1894 82.1394,73.2394 L82.1294,73.2394 C82.1274,73.2474 82.1264,73.2554 82.1244,73.2614 C82.0694,73.3494 82.0244,73.4454 81.9844,73.5444 C81.9574,73.5704 81.9334,73.6014 81.9204,73.6464 C81.8454,73.9114 81.8054,74.1794 81.7934,74.4524 C81.5104,74.5484 81.2254,74.6444 80.9214,74.7474 C80.9174,74.7244 80.9154,74.7044 80.9044,74.6834 C80.7344,74.3314 80.6754,73.9254 80.7434,73.5404 C80.7784,73.3434 80.5214,73.1244 80.3654,73.3204 C79.9844,73.7944 80.0024,74.4474 80.1924,74.9974 C80.2004,75.0194 80.2124,75.0324 80.2234,75.0504 C80.2234,75.0664 80.2244,75.0814 80.2244,75.0974 C79.9424,75.3024 79.6534,75.5154 79.3454,75.7384 C79.2914,75.6574 79.2384,75.5794 79.1864,75.5034 C79.0504,75.2184 78.9574,74.9274 78.9024,74.6094 C78.8864,74.5134 78.8264,74.4684 78.7564,74.4524 C78.6204,74.3614 78.3914,74.4174 78.4004,74.6264 C78.4294,75.2104 78.4894,75.7904 78.8784,76.2244 C78.9004,76.2904 78.9174,76.3574 78.9284,76.4254 C78.8164,76.6324 78.6754,76.8964 78.4914,77.2384 C78.3934,77.1574 78.3074,77.0894 78.2244,77.0234 C78.1154,76.8884 78.0224,76.7394 77.9684,76.5644 C77.8824,76.2844 77.4444,76.4044 77.5304,76.6834 C77.6244,76.9864 77.7924,77.2244 77.9954,77.4414 C78.2824,77.8434 78.3484,78.2904 78.3054,78.7794 C78.2894,78.9584 78.2874,79.1484 78.3144,79.3274 C78.4964,80.5484 78.7274,81.7124 79.8854,82.4884 C81.3164,83.4474 82.7944,83.5444 84.4304,83.1654 C86.0374,82.7924 87.0834,80.9844 87.0894,79.7144 C87.0964,78.2734 86.8494,76.9174 86.0184,75.7144 C85.9314,75.5894 85.8704,75.4664 85.8324,75.3454" id="Fill-9" fill="#00A8A0"></path>
                    <path d="M109.5869,75.0914 C110.9389,74.7304 112.2839,74.6834 113.3689,75.7494 C114.4989,76.8614 114.7299,78.2434 114.2739,79.7344 C113.9309,80.8744 112.3159,81.8514 110.8579,81.9504 C110.2269,81.7454 109.5519,81.6224 108.9739,81.3144 C108.1249,80.8614 107.5599,80.1264 107.5959,79.0994 C107.6239,78.3704 107.6649,77.6284 107.8329,76.9234 C108.0519,76.0074 108.6499,75.3394 109.5869,75.0914 M106.7979,79.7964 C106.9219,80.3664 107.1609,81.0344 107.5749,81.4024 C109.7629,83.3454 113.1569,83.3554 114.9529,80.1654 C115.3469,79.4664 115.4699,78.7394 115.2909,77.9564 C115.2509,77.7864 115.2569,77.6074 115.2439,77.4454 C115.8919,77.2184 116.1119,77.1384 116.1619,76.9504 C116.2249,76.8804 116.2799,76.8084 116.3209,76.7244 C116.4519,76.4624 116.0619,76.2344 115.9309,76.4954 C115.8949,76.5684 115.8359,76.6404 115.7649,76.7064 C115.1049,77.0154 114.9879,76.8594 114.8329,75.9894 C114.8729,75.9484 114.8999,75.9174 114.9349,75.8804 C115.0999,75.7414 115.2449,75.5714 115.3389,75.3864 C115.3549,75.3554 115.3679,75.3254 115.3769,75.2964 C115.4369,75.1484 115.4659,74.9894 115.4389,74.8314 C115.3999,74.6094 115.0459,74.6184 115.0009,74.8314 C114.9149,75.2474 114.4869,75.5284 114.1109,75.2864 C113.9189,75.1204 113.7809,74.9434 113.7179,74.7344 C113.8369,74.3904 113.8349,73.9994 113.7529,73.6464 C113.7349,73.5344 113.7059,73.4314 113.6589,73.3434 C113.5419,73.1164 113.1599,73.2734 113.2449,73.5174 C113.2669,73.5754 113.2859,73.6384 113.2999,73.7024 C113.3079,73.7494 113.3099,73.8024 113.3099,73.8594 C113.2639,74.0254 113.2139,74.2044 113.1629,74.3944 C113.1319,74.4274 113.0929,74.4434 113.0519,74.4464 C112.7799,74.3454 112.5339,74.2554 112.3309,74.1774 C112.2119,73.8124 112.2589,73.4214 112.0979,73.0684 C112.0379,72.9094 111.9639,72.7574 111.8659,72.6244 C111.6959,72.3964 111.3179,72.5994 111.4749,72.8534 C111.6959,73.2144 111.7099,73.6144 111.6959,74.0214 L110.6729,74.0214 C110.6749,73.7374 110.5889,73.4454 110.4519,73.1814 C110.4309,73.1364 110.4059,73.0934 110.3769,73.0524 C110.2919,72.9134 110.1969,72.7824 110.0939,72.6734 C109.8909,72.4564 109.5889,72.7734 109.7739,72.9934 C109.8669,73.1074 109.9499,73.2454 110.0119,73.3944 C110.0459,73.6304 110.0769,73.8594 110.1099,74.0974 C109.7559,74.1774 109.4969,74.2364 109.2869,74.2824 C109.1009,74.1404 108.9929,73.9214 108.8469,73.7494 C108.7329,73.5464 108.5719,73.3744 108.3629,73.2614 C108.3469,73.2494 108.3339,73.2344 108.3169,73.2204 C108.0969,73.0284 107.8079,73.3204 107.9969,73.5404 C108.0189,73.5584 108.0359,73.5794 108.0549,73.5974 C108.0549,73.5994 108.0549,73.5994 108.0559,73.5994 C108.1459,73.6834 108.2279,73.7774 108.3019,73.8784 C108.3929,74.0914 108.4779,74.2944 108.5579,74.4864 C108.5599,74.5014 108.5659,74.5194 108.5669,74.5364 C106.8819,76.0364 106.3239,77.6074 106.7979,79.7964" id="Fill-11" fill="#00A8A0"></path>
                    <path d="M104.8505,87.443 C104.9365,87.271 104.9145,86.904 104.7915,86.8 C104.5525,86.593 104.2745,86.748 104.0895,86.99 C103.9405,87.181 103.8135,87.39 103.6755,87.593 C103.1125,88.422 102.3815,89.066 101.4585,89.449 C99.1145,90.422 96.7575,90.396 94.4395,89.377 C93.4355,88.935 92.4575,88.42 91.7935,87.476 C91.6395,87.257 91.4035,87.023 91.1055,87.269 C90.8365,87.488 90.9325,87.773 91.0985,88.007 C91.3095,88.306 91.5205,88.615 91.7855,88.861 C93.4785,90.427 95.5195,91.101 97.7975,91.123 C98.0105,91.123 98.2255,91.134 98.4375,91.121 C99.9505,91.031 101.4035,90.726 102.6965,89.884 C103.6365,89.271 104.3565,88.447 104.8505,87.443" id="Fill-13" fill="#00A8A0"></path>
                    <path d="M99.1513,82.777 C99.6423,82.369 99.9593,81.275 99.7433,80.683 C99.6453,80.558 99.5063,80.47 99.3203,80.468 C99.1983,80.466 99.1203,80.492 99.0613,80.531 C99.0273,80.588 98.9923,80.642 98.9613,80.697 C98.9553,80.744 98.9573,80.798 98.9643,80.861 C98.9683,80.877 98.9723,80.892 98.9733,80.908 C99.0303,81.677 98.8053,82.025 98.0883,82.277 C97.0263,82.652 96.2963,82.466 95.7203,81.64 C95.5963,81.597 95.4663,81.584 95.3343,81.638 C95.2173,81.687 95.1073,81.761 94.9993,81.838 C94.9893,82.17 95.1393,82.5 95.4453,82.757 C96.2713,83.453 98.3253,83.463 99.1513,82.777" id="Fill-15" fill="#00A8A0"></path>
                    <path d="M79.8295,70.3824 C80.5045,70.1034 81.1845,69.8294 81.8815,69.6114 C82.2525,69.4934 82.6625,69.5034 83.0555,69.4504 C83.3635,69.4114 83.5785,69.2554 83.5825,68.9274 C83.5855,68.5624 83.3735,68.3684 83.0165,68.3374 C82.8955,68.3254 82.7735,68.3354 82.6505,68.3354 C82.6515,68.3434 82.6515,68.3534 82.6515,68.3624 C82.4375,68.3764 82.2225,68.3764 82.0115,68.4074 C81.0315,68.5584 80.1165,68.8904 79.2955,69.4504 C79.0165,69.6404 78.7355,69.9054 78.9515,70.2884 C79.1765,70.6894 79.5015,70.5174 79.8295,70.3824" id="Fill-17" fill="#00A8A0"></path>
                    <path d="M110.9814,69.9352 C111.3714,69.8552 111.7644,69.8042 112.0884,69.7512 C112.2824,69.7672 112.4074,69.7612 112.5254,69.7892 C113.0894,69.9152 113.6514,70.0642 114.2174,70.1832 C114.5284,70.2472 114.8614,70.2552 114.9814,69.8762 C115.0964,69.5152 114.8684,69.2712 114.5574,69.1732 C113.9774,68.9902 113.3844,68.7632 112.7904,68.7342 C112.1024,68.7012 111.4004,68.8282 110.7154,68.9532 C110.3944,69.0112 110.0304,69.2322 110.1414,69.6462 C110.2554,70.0702 110.6324,70.0072 110.9814,69.9352" id="Fill-19" fill="#00A8A0"></path>
                    <path d="M161.082,90.111 C160.824,90.195 160.577,90.322 160.333,90.445 C159.789,90.722 159.268,91.05 158.703,91.281 C157.474,91.785 156.196,92.088 154.86,91.841 C150.71,91.078 147.921,88.73 146.605,84.687 C146.513,84.398 146.401,84.105 146.237,83.855 C146.157,83.732 145.897,83.603 145.789,83.646 C145.627,83.713 145.438,83.918 145.416,84.086 C145.378,84.378 145.415,84.699 145.494,84.99 C146.119,87.289 147.231,89.269 149.183,90.73 C150.749,91.904 152.421,92.804 154.381,93.091 C154.681,93.136 154.974,93.22 155.268,93.287 C155.416,93.806 155.51,94.322 155.701,94.797 C156.335,96.369 158.353,96.867 159.669,95.822 C160.641,95.048 160.736,94.031 160.562,92.924 C160.513,92.601 160.428,92.285 160.359,91.957 C160.828,91.681 161.23,91.463 161.61,91.213 C161.898,91.023 162,90.728 161.855,90.41 C161.707,90.082 161.404,90.006 161.082,90.111" id="Fill-21" fill="#00A8A0"></path>
                    <path d="M166.0019,84.0739 C164.7929,83.4919 162.8329,83.9119 161.8849,84.9609 C161.6519,85.2189 161.4189,85.4999 161.7139,85.8399 C161.9769,86.1399 162.2589,85.9609 162.5319,85.7989 C162.9499,85.5509 163.3559,85.2609 163.8059,85.0899 C165.1159,84.5879 166.0789,85.0539 166.5339,86.3849 C166.6579,86.7539 166.6939,87.1519 166.7709,87.5369 C166.7459,87.5409 166.7209,87.5449 166.6959,87.5489 C166.6959,87.7029 166.6459,87.8789 166.7059,87.9999 C166.8199,88.2239 166.9579,88.5149 167.1579,88.5949 C167.4879,88.7219 167.7239,88.4699 167.8449,88.1559 C167.8889,88.0429 167.9179,87.9239 167.9359,87.8029 C168.1649,86.2989 167.3479,84.7239 166.0019,84.0739" id="Fill-23" fill="#00A8A0"></path>
                    <path d="M149.3915,78.5465 C149.3845,78.7615 149.3465,79.0015 149.4295,79.1795 C149.5175,79.3665 149.7395,79.6205 149.8925,79.6125 C150.0545,79.6055 150.2595,79.3535 150.3485,79.1615 C150.4305,78.9825 150.3835,78.7415 150.3885,78.6815 C150.3605,76.6965 149.6295,75.6575 148.0235,75.3065 C147.4985,75.1895 146.9185,75.1755 146.3875,75.2655 C145.3135,75.4485 144.3625,75.9275 143.6495,76.7865 C143.4755,76.9955 143.2915,77.2595 143.5645,77.5155 C143.8445,77.7785 144.0365,77.5215 144.2685,77.3725 C144.8795,76.9785 145.4715,76.4875 146.1465,76.2805 C147.6425,75.8235 149.4685,76.3745 149.3915,78.5465" id="Fill-25" fill="#00A8A0"></path>
                    <path d="M154.6005,87.3688 C156.0785,87.7788 157.4855,86.5958 157.4965,84.8648 C157.5385,84.3238 157.3945,83.7688 156.8045,83.4628 C156.2605,83.1798 155.6665,83.1738 155.1425,83.4918 C154.9545,83.6068 154.7615,83.9448 154.7915,84.1458 C154.8485,84.5118 155.1825,84.4328 155.4575,84.3318 C155.5415,84.3008 155.6295,84.2688 155.7195,84.2598 C156.2305,84.2048 156.4545,84.4218 156.4105,84.9548 C156.3605,85.5428 156.0865,86.0328 155.5515,86.2728 C155.0395,86.5018 154.6165,86.2638 154.2805,85.8318 C154.0965,85.5958 153.8385,85.4778 153.5625,85.6988 C153.2755,85.9298 153.2935,86.2168 153.4575,86.5188 C153.7055,86.9838 154.1155,87.2338 154.6005,87.3688" id="Fill-27" fill="#00A8A0"></path>
                    <path d="M146.6435,71.6403 C147.5865,71.2633 148.4915,71.3983 149.3915,71.7713 C149.7035,71.9023 150.0085,71.9153 150.1595,71.5543 C150.3045,71.2063 150.1135,70.9313 149.8035,70.8243 C149.2685,70.6363 148.7075,70.5153 148.1585,70.3693 C147.4845,70.4543 146.8345,70.4743 146.3415,70.9663 C146.2215,71.0853 146.2245,71.3293 146.1685,71.5173 C146.3305,71.5623 146.5215,71.6873 146.6435,71.6403" id="Fill-29" fill="#00A8A0"></path>
                    <path d="M169.5419,80.3707 C169.5199,80.5427 169.5859,80.8137 169.7139,80.9017 C170.3129,81.3157 170.5789,81.9097 170.7539,82.5757 C170.7999,82.7517 170.8309,82.9627 170.9459,83.0837 C171.0959,83.2397 171.3399,83.4297 171.5109,83.4017 C171.6759,83.3767 171.7999,83.0917 171.8589,83.0187 C171.8699,82.1187 171.2679,80.8627 170.6719,80.4507 C170.4799,80.3197 170.2329,80.2297 170.0019,80.2007 C169.8489,80.1837 169.5519,80.2907 169.5419,80.3707" id="Fill-31" fill="#00A8A0"></path>
                    <path d="M31.8178,97.6969 C30.4348,97.7869 29.4128,96.6149 29.3488,95.0679 C29.2738,93.2499 31.0188,92.2629 32.2218,92.1909 C33.5548,92.1129 34.7578,93.4289 34.7738,94.8979 C34.8238,96.8039 33.4518,97.5919 31.8178,97.6969 M34.6988,92.5429 C34.2198,91.9259 33.6188,91.5309 32.8718,91.3419 C31.6408,91.2339 31.4188,91.4489 30.5218,91.8319 C28.9158,92.4939 27.7618,95.1499 29.3208,97.2499 C30.6558,99.0489 33.6678,98.8199 34.9998,96.8809 C35.5158,96.1269 35.7928,95.3219 35.6548,94.3879 C35.5478,93.6539 35.1268,93.0969 34.6988,92.5429" id="Fill-33" fill="#00A8A0"></path>
                    <path d="M55.8408,84.2301 C55.8118,85.4801 54.7698,86.5211 53.6438,86.4721 C52.1538,86.4081 50.9868,85.2791 51.0348,83.9511 C51.0828,82.6521 52.1858,81.4251 53.2738,81.4881 C55.1748,81.5991 55.8698,82.9471 55.8408,84.2301 M50.2698,84.1151 C50.2598,85.7421 51.8958,87.2281 53.7048,87.2651 C55.1258,87.2941 56.7508,85.8101 56.6478,84.1301 C56.6578,82.1871 55.2198,80.7361 53.2518,80.7071 C51.6438,80.6811 50.2818,82.2401 50.2698,84.1151" id="Fill-35" fill="#00A8A0"></path>
                    <path d="M43.1098,89.1989 C43.2238,89.0639 43.2558,88.8669 43.3528,88.7129 C43.5678,88.3669 43.9068,88.2279 44.2928,88.2849 C44.7098,88.3449 44.8888,88.6539 44.9628,89.0509 C45.0948,89.7609 44.7968,90.1659 44.0588,90.1599 C43.7458,90.1599 43.4778,90.1659 43.4578,90.5189 C43.4388,90.8669 43.7368,90.9489 44.0208,90.9919 C44.9688,91.1349 45.8828,90.2989 45.8648,89.2629 C45.8288,89.0349 45.8128,88.7579 45.7368,88.4959 C45.5248,87.7669 44.7038,87.2889 43.9378,87.4239 C43.1488,87.5639 42.4078,88.3419 42.4408,89.0389 C42.4488,89.1849 42.6018,89.3259 42.6878,89.4699 C42.8308,89.3829 43.0058,89.3199 43.1098,89.1989" id="Fill-37" fill="#00A8A0"></path>
                    <path d="M29.6201,88.2047 C29.4081,87.8527 29.1021,87.8437 28.7461,87.9857 C27.9351,88.3117 27.2141,88.7707 26.7211,89.4977 C26.4701,89.8667 26.2931,90.3067 26.1771,90.7397 C26.0761,91.1167 26.3841,91.4607 26.8241,91.4387 C26.9191,91.3357 27.1341,91.1907 27.2201,90.9897 C27.6161,90.0657 28.2871,89.4607 29.1991,89.0617 C29.6741,88.8527 29.8061,88.5137 29.6201,88.2047" id="Fill-39" fill="#00A8A0"></path>
                    <path d="M49.9501,78.3082 C50.8661,77.6112 51.8301,77.0702 53.0501,77.1692 C53.2081,77.1832 53.5171,76.9192 53.5261,76.7692 C53.5371,76.6052 53.3021,76.3962 53.1311,76.2612 C53.0271,76.1772 52.8421,76.1932 52.7831,76.1832 C51.4201,76.2572 50.3151,76.7222 49.4301,77.6382 C49.2791,77.7962 49.1691,78.1792 49.2561,78.3432 C49.4261,78.6632 49.7221,78.4822 49.9501,78.3082" id="Fill-41" fill="#00A8A0"></path>
                    <path d="M84.3168,77.2379 C83.4518,76.3729 82.0078,76.3729 81.1418,77.2379 C80.2768,78.1009 80.2768,79.5469 81.1418,80.4119 L81.2048,80.4739 C82.0698,81.3399 83.5138,81.3399 84.3788,80.4739 C85.2448,79.6089 85.2448,78.1639 84.3788,77.2999 L84.3168,77.2379 Z" id="Fill-43" fill="#00A8A0"></path>
                    <path d="M110.2216,80.691 C111.2086,81.117 112.3756,80.779 112.9786,79.894 C113.4916,79.138 113.4736,78.119 112.9716,77.377 C112.6336,76.771 112.0106,76.33 111.1036,76.33 C109.5306,76.33 108.8196,77.652 108.9546,78.863 C108.9916,79.707 109.4256,80.349 110.2216,80.691" id="Fill-45" fill="#00A8A0"></path>
                    <path d="M52.0771,94.277 C52.1491,93.003 51.1491,92.205 49.8741,92.39 C49.6371,92.423 49.3451,92.349 49.1311,92.23 C48.0081,91.609 47.1401,91.873 46.5881,93.037 C46.5371,93.142 46.4951,93.252 46.4371,93.388 C45.7201,93.144 45.0321,93.003 44.4731,93.638 C43.9181,94.271 44.1461,94.939 44.4661,95.601 C43.9161,96.068 43.5191,96.632 43.7331,97.304 C43.8701,97.738 44.8461,98.744 44.8461,98.744 C44.8461,98.744 44.3481,99.111 44.1731,99.179 C43.1471,99.576 42.1541,99.767 41.3751,98.705 C40.9591,98.289 40.6621,98.441 40.6621,98.441 C40.6621,98.441 40.1961,98.759 40.5681,99.131 C40.8701,99.5 41.1861,99.951 41.5991,100.119 C42.7191,100.568 43.8701,100.574 44.9531,99.922 C45.1551,99.8 45.3541,99.677 45.5751,99.541 C45.7041,99.707 45.7911,99.828 45.8881,99.941 C46.6621,100.834 47.7011,101.003 48.6501,100.318 C48.9811,100.08 49.2691,100.154 49.5951,100.166 C50.5031,100.197 51.1951,99.701 51.4341,98.83 C51.5071,98.568 51.5271,98.291 51.5731,98.011 C51.7391,97.918 51.9061,97.84 52.0561,97.736 C52.8611,97.185 53.0521,96.289 52.4521,95.509 C52.1511,95.119 52.0481,94.775 52.0771,94.277" id="Fill-47" fill="#00A8A0"></path>
                    <path d="M32.0244,93.6207 C31.4914,94.0037 31.2804,94.3847 31.2214,95.0367 C31.1474,95.8507 31.9584,96.5347 32.7174,96.5347 C33.3744,96.5347 33.8484,96.1457 34.0744,95.6087 C34.3204,95.1737 34.3614,94.6517 34.0724,94.1577 C33.6894,93.5037 32.6884,93.1437 32.0244,93.6207" id="Fill-49" fill="#00A8A0"></path>
                    <path d="M53.9194,85.4957 C55.8504,85.4957 55.8504,82.5037 53.9194,82.5037 C51.9894,82.5037 51.9894,85.4957 53.9194,85.4957" id="Fill-51" fill="#00A8A0"></path>
                </g>
            </g>
        </g>
    </g>
</svg>