<svg width="54" height="64" viewBox="0 0 54 64" xmlns="http://www.w3.org/2000/svg" xmlns:xlink="http://www.w3.org/1999/xlink"><title>Pin</title><desc>Created with Sketch.</desc><defs><linearGradient x1="50%" y1="0%" x2="50%" y2="100%" id="a"><stop stop-color="#454545" offset="0%"/><stop offset="100%"/></linearGradient><filter x="-21.4%" y="-45%" width="142.9%" height="190%" filterUnits="objectBoundingBox" id="b"><feGaussianBlur stdDeviation="3" in="SourceGraphic"/></filter><linearGradient x1="50%" y1="0%" x2="50%" y2="100%" id="c"><stop stop-color="#8FEBD7" offset="0%"/><stop stop-color="#12ADA4" offset="100%"/></linearGradient><path d="M21 58c1.098 0 21-25.261 21-36.909s-9.402-21.091-21-21.091-21 9.443-21 21.091c0 11.648 19.902 36.909 21 36.909z" id="d"/></defs><g transform="translate(-1000 -962) translate(1006 962)" fill="none"><path d="M21 58c1.098 0 21-8.711 21-12.727 0-4.017-9.402-7.273-21-7.273s-21 3.256-21 7.273c0 4.017 19.902 12.727 21 12.727z" fill-opacity=".3" fill="url(#a)" style="mix-blend-mode:multiply" filter="url(#b)"/><use fill="url(#c)" xlink:href="#d"/><path stroke="#fff" stroke-width="2" d="M21 56.726l-.478-.507c-.651-.715-1.512-1.743-2.483-2.969-2.242-2.83-4.781-6.338-7.116-9.886-6.124-9.308-9.924-17.393-9.924-22.273 0-11.097 8.955-20.091 20-20.091s20 8.994 20 20.091c0 4.88-3.8 12.965-9.924 22.273-2.335 3.548-4.874 7.056-7.116 9.886-.971 1.225-1.832 2.253-2.483 2.969l-.478.507z"/><circle fill="#fff" cx="21.5" cy="21.5" r="7.5"/></g></svg>