<?xml version="1.0" encoding="UTF-8"?>
<svg width="231px" height="70px" viewBox="0 0 231 70" version="1.1" xmlns="http://www.w3.org/2000/svg" xmlns:xlink="http://www.w3.org/1999/xlink">
    <!-- Generator: Sketch 43.2 (39069) - http://www.bohemiancoding.com/sketch -->
    <title>logo_top</title>
    <desc>Created with Sketch.</desc>
    <defs>
        <polygon id="path-1" points="23.178 0.332734115 23.178 42.9915647 0.688182459 42.9915647 0.688182459 0.332734115 23.178 0.332734115"></polygon>
        <polygon id="path-3" points="0 45.0069959 0 0.952349999 23.1032737 0.952349999 23.1032737 45.0069959 8.48943854e-16 45.0069959"></polygon>
        <polygon id="path-5" points="0.265232001 0.213 13.8023061 0.213 13.8023061 44.174435 0.265232001 44.174435 0.265232001 0.213"></polygon>
        <polygon id="path-7" points="0.693202012 14 7.35804446 14 7.35804446 0.191461154 0.693202012 0.191461154"></polygon>
    </defs>
    <g id="Symbols" stroke="none" stroke-width="1" fill="none" fill-rule="evenodd">
        <g id="Menu_logo" transform="translate(-480.000000, -1.000000)">
            <g id="logo_top" transform="translate(480.000000, 0.000000)">
                <path d="M131.8398,17.6331 C131.7238,19.9101 131.6128,22.1051 131.5008,24.3141 C131.7548,24.3981 131.9018,24.4881 132.0508,24.4901 C135.3228,24.5171 137.7328,26.2741 139.6248,28.6541 C140.5778,29.8551 141.1988,31.4611 141.5448,32.9791 C142.1968,35.8411 142.5608,38.7701 143.0008,41.6791 C143.0768,42.1891 143.0058,42.7461 142.8868,43.2541 C142.6158,44.3931 141.6448,45.1301 140.5858,45.0851 C139.4788,45.0391 138.6128,44.1721 138.4398,42.9331 C138.2918,41.8821 138.1578,40.8271 137.9988,39.7781 C137.7288,38.0011 137.5258,36.2091 137.1428,34.4561 C136.6738,32.3121 135.7358,30.4291 133.4938,29.5841 C133.0148,29.4031 132.4958,29.3271 131.8748,29.1721 C131.8748,30.5901 131.8488,31.8471 131.8808,33.1031 C131.9338,35.0221 132.0058,36.9421 132.1078,38.8591 C132.1558,39.7931 132.2888,40.7241 132.3818,41.6561 C132.4278,42.1021 132.5178,42.5521 132.4938,42.9941 C132.4378,44.0791 131.5958,44.9751 130.5938,45.0841 C129.6398,45.1881 128.6818,44.5451 128.4318,43.4621 C128.1778,42.3531 127.9918,41.2131 127.9188,40.0771 C127.7328,37.1411 127.6248,34.2001 127.4788,31.2611 C127.4648,30.9881 127.4038,30.7181 127.3528,30.3521 C126.5408,30.6201 126.0738,31.1681 125.6308,31.7491 C124.6168,33.0801 124.0428,34.6151 123.7288,36.2261 C123.4408,37.7041 123.3168,39.2131 123.1288,40.7091 C123.0458,41.3581 123.0138,42.0151 122.8988,42.6571 C122.6468,44.0381 121.8418,44.7791 120.7268,44.7151 C119.4738,44.6431 118.5548,43.7421 118.5178,42.3791 C118.4828,41.0331 118.4508,39.6621 118.6558,38.3411 C118.9368,36.5301 119.3048,34.7091 119.8828,32.9751 C121.0448,29.4931 123.0848,26.7261 126.7598,25.5161 C126.8358,25.4911 126.9008,25.4341 127.0408,25.3511 L127.0408,17.8581 C126.9568,17.7841 126.9038,17.6961 126.8398,17.6871 C121.9368,16.9491 118.6878,12.3401 118.5328,7.8101 C118.5128,7.2401 118.4568,6.6561 118.5408,6.0971 C118.6238,5.5431 118.7868,4.9731 119.0498,4.4821 C119.4548,3.7241 120.4278,3.3041 121.1268,3.4901 C121.9608,3.7121 122.2768,4.3771 122.3958,5.1341 C122.5288,5.9801 122.6098,6.8381 122.6698,7.6931 C122.7938,9.4251 123.7088,10.7631 124.8088,12.0001 C125.2508,12.4991 125.7728,12.6311 127.0648,12.7541 C127.1098,12.1651 127.1508,11.5721 127.1978,10.9801 C127.3558,9.1081 127.5098,7.2361 127.6778,5.3651 C127.7028,5.0811 127.7698,4.7981 127.8538,4.5261 C128.1518,3.5611 128.9358,2.9611 129.8278,2.9871 C130.7098,3.0151 131.5248,3.6781 131.7268,4.6321 C131.8358,5.1451 131.8438,5.6891 131.8278,6.2171 C131.7718,8.0141 131.6818,9.8101 131.6128,11.6061 C131.5978,12.0021 131.6098,12.3991 131.6098,12.9651 C132.0778,12.8001 132.3708,12.7131 132.6508,12.5921 C132.7978,12.5291 132.9118,12.3941 133.0568,12.3191 C135.2818,11.1631 136.2458,9.2621 136.3278,6.8251 C136.3458,6.3371 136.4198,5.8471 136.5088,5.3651 C136.6858,4.4031 137.2478,3.7461 138.1608,3.3961 C139.3928,2.9251 140.6108,3.5891 140.6508,4.8901 C140.7318,7.3961 140.5038,9.8681 139.3708,12.1801 C138.2088,14.5491 136.0918,15.7511 133.8438,16.7981 C133.1808,17.1071 132.4928,17.3631 131.8398,17.6331" id="Fill-1" fill="#00A8A0"></path>
                <g id="Group-5" transform="translate(207.000000, 1.787300)">
                    <mask id="mask-2" fill="white">
                        <use xlink:href="#path-1"></use>
                    </mask>
                    <g id="Clip-4"></g>
                    <path d="M15.7968,38.1793 C15.5718,38.5633 15.4188,38.8353 15.2568,39.1013 C14.9588,39.5893 14.6788,40.0903 14.3528,40.5583 C11.9798,43.9523 7.1388,43.2143 5.4228,40.8653 C4.1288,39.0923 3.0878,37.2543 2.5718,35.0963 C1.7888,31.8273 1.3248,28.5153 0.9678,25.1853 C0.8588,24.1703 0.8168,23.1463 0.7928,22.1273 C0.7388,19.8803 0.6718,17.6333 0.6918,15.3863 C0.7118,13.0993 0.9918,10.8043 0.8548,8.5313 C0.7318,6.5113 0.9408,4.5323 1.0718,2.5393 C1.1768,0.9453 2.4238,0.0793 3.9878,0.3983 C5.0568,0.6163 5.7308,1.3343 5.7748,2.4303 C5.8198,3.5703 5.7648,4.7163 5.7878,5.8583 C5.8268,7.7363 5.9128,9.6143 5.9458,11.4923 C5.9928,14.2313 6.0288,16.9703 6.0408,19.7093 C6.0628,24.8823 6.6448,29.9803 8.0258,34.9743 C8.0688,35.1323 8.1338,35.2843 8.1718,35.4423 C8.3198,36.0803 8.5958,36.6123 9.3218,36.7043 C10.0778,36.7993 10.7328,36.5433 11.1068,35.8833 C11.5078,35.1773 11.9278,34.4383 12.1148,33.6613 C12.6918,31.2773 13.0508,28.8543 13.1548,26.3933 C13.2798,23.4143 13.4808,20.4383 13.6388,17.4613 C13.8348,13.7513 14.0288,10.0403 14.2088,6.3303 C14.2658,5.1923 14.2708,4.0513 14.3048,2.9123 C14.3438,1.5743 15.2438,0.5903 16.5628,0.4383 C17.9548,0.2793 19.1968,1.0273 19.4578,2.3253 C19.6418,3.2363 19.7418,4.1963 19.6778,5.1213 C19.4078,9.0323 19.0648,12.9383 18.7428,16.8473 C18.6798,17.6193 18.6468,18.4003 18.5128,19.1623 C17.7988,23.2413 18.2358,27.3113 18.5998,31.3803 C18.8108,33.7423 19.6038,35.9183 21.0118,37.8443 C21.2488,38.1683 21.5368,38.4713 21.8538,38.7163 C23.1968,39.7603 23.5218,40.7643 22.8148,41.8183 C22.0778,42.9173 20.2068,43.3893 19.0958,42.5963 C18.3188,42.0423 17.6548,41.2823 17.0738,40.5143 C16.5708,39.8453 16.2538,39.0363 15.7968,38.1793" id="Fill-3" fill="#00A8A0" mask="url(#mask-2)"></path>
                </g>
                <g id="Group-8" transform="translate(0.000000, 1.787300)">
                    <mask id="mask-4" fill="white">
                        <use xlink:href="#path-3"></use>
                    </mask>
                    <g id="Clip-7"></g>
                    <path d="M18.9111,41.2311 C19.1251,39.0051 17.4671,38.6951 16.1981,37.8561 C15.7311,38.2501 15.2341,38.5941 14.8251,39.0241 C13.4621,40.4521 11.8891,41.3361 9.8421,41.2191 C8.7451,41.1571 7.6471,41.2671 6.5871,40.8071 C4.9061,40.0761 3.6601,38.9591 2.8251,37.2951 C1.3461,34.3471 0.7921,31.1931 0.5131,27.9581 C-0.1489,20.3291 0.0041,12.6831 0.0421,5.0391 C0.0461,4.2711 0.1901,3.4921 0.3681,2.7411 C0.6321,1.6301 1.5541,0.9261 2.5671,0.9531 C3.6181,0.9801 4.4501,1.6801 4.7031,2.8071 C4.8011,3.2421 4.8441,3.6971 4.8471,4.1421 C4.8781,10.0291 4.8161,15.9191 4.9531,21.8021 C5.0321,25.1451 5.2491,28.5041 6.0801,31.7721 C6.3301,32.7561 6.7131,33.7091 7.0691,34.6621 C7.3531,35.4251 7.9161,35.9241 8.6511,36.2861 C10.6911,37.2941 12.5151,36.6301 13.2911,34.4971 C13.5671,33.7361 13.7181,32.9201 13.8421,32.1171 C14.1841,29.8931 14.3261,27.6641 14.2231,25.4021 C14.1061,22.8361 14.1861,20.2601 14.2051,17.6881 C14.2341,13.7661 14.2741,9.8451 14.3321,5.9231 C14.3461,5.0261 14.4241,4.1271 14.5241,3.2341 C14.6551,2.0661 15.5131,1.2331 16.5931,1.1611 C17.7521,1.0851 18.6841,1.8141 18.9371,3.0461 C19.0271,3.4821 19.0781,3.9411 19.0541,4.3851 C18.7921,9.4051 18.6921,14.4281 18.7211,19.4561 C18.7391,22.4821 18.7051,25.5081 18.6171,28.5321 C18.5761,29.9151 18.4341,31.3081 18.1791,32.6661 C18.0001,33.6171 18.2391,34.2541 19.0081,34.7531 C19.3151,34.9531 19.6501,35.1171 19.9381,35.3411 C20.6131,35.8681 21.2821,36.4021 21.9241,36.9671 C23.4931,38.3501 23.5231,41.5911 21.8531,43.0511 C21.2711,43.5601 20.6831,44.0811 20.0311,44.4861 C19.0361,45.1061 17.9411,45.1431 16.8431,44.7531 C16.1481,44.5071 15.5871,44.0671 15.5041,43.3011 C15.4111,42.4321 15.5451,41.5651 16.2221,40.9271 C16.6901,40.4861 17.2761,40.5491 17.8401,40.7601 C18.1331,40.8701 18.4151,41.0111 18.9111,41.2311" id="Fill-6" fill="#00A8A0" mask="url(#mask-4)"></path>
                </g>
                <path d="M160.9462,40.5965 C160.6682,41.1515 160.5022,41.5615 160.2692,41.9275 C159.8312,42.6125 159.3952,43.3045 158.8842,43.9355 C157.3272,45.8645 153.5932,45.5685 152.1612,43.5975 C150.8662,41.8175 149.9242,39.9065 149.4702,37.7485 C148.3122,32.2485 147.7572,26.6905 147.8482,21.0695 C147.8902,18.4555 147.9452,15.8415 147.9592,13.2275 C147.9662,12.1265 147.8222,11.0245 147.8462,9.9255 C147.8852,8.1695 147.9472,6.4115 148.1152,4.6655 C148.2352,3.4295 149.1772,2.6655 150.2522,2.7205 C151.3512,2.7785 152.1552,3.5985 152.2042,4.8375 C152.2532,6.0585 152.1862,7.2845 152.2112,8.5065 C152.2472,10.3035 152.3442,12.0995 152.3692,13.8955 C152.4122,17.1265 152.3782,20.3575 152.4542,23.5875 C152.5682,28.3355 153.0742,33.0405 154.2522,37.6565 C154.3902,38.2025 154.4512,38.8135 155.1132,39.0365 C155.7642,39.2565 156.5162,38.9835 156.8602,38.2635 C157.2452,37.4595 157.6042,36.6155 157.7972,35.7505 C158.4622,32.7445 158.6302,29.6925 158.6352,26.6135 C158.6392,24.4115 158.9362,22.2125 159.0482,20.0095 C159.2452,16.0925 159.4062,12.1745 159.5712,8.2565 C159.6112,7.3215 159.5952,6.3855 159.6222,5.4505 C159.6302,5.1685 159.6702,4.8795 159.7422,4.6055 C160.0352,3.4885 160.8672,2.8285 161.9462,2.8325 C163.0012,2.8365 163.9302,3.5275 164.1262,4.6325 C164.2952,5.5905 164.3882,6.5855 164.3362,7.5535 C164.1592,10.7345 163.9182,13.9125 163.6702,17.0895 C163.4812,19.5315 163.1882,21.9685 163.0492,24.4145 C162.9552,26.0835 162.9942,27.7645 163.0652,29.4375 C163.1352,31.0685 163.3062,32.6965 163.4642,34.3215 C163.6602,36.3445 164.2972,38.2355 165.3432,39.9725 C165.6522,40.4835 166.0922,40.9305 166.5272,41.3465 C167.5092,42.2835 167.6602,43.5735 166.8512,44.5195 C165.9632,45.5595 164.4772,45.7095 163.4862,44.7355 C162.8592,44.1165 162.3652,43.3465 161.8942,42.5945 C161.5352,42.0195 161.3052,41.3655 160.9462,40.5965" id="Fill-9" fill="#00A8A0"></path>
                <path d="M197.3837,17.2625 L191.8057,17.2625 C191.8057,18.5395 191.7967,19.7525 191.8097,20.9645 C191.8167,21.5775 191.8987,22.1895 191.8897,22.8005 C191.8217,27.5915 192.2207,32.3575 192.6567,37.1205 C192.8167,38.8695 192.9647,40.6185 193.1157,42.3665 C193.1307,42.5305 193.1327,42.6935 193.1287,42.8565 C193.1037,44.0655 192.3727,45.0005 191.3347,45.1555 C190.2047,45.3245 189.1707,44.6485 188.8307,43.4655 C188.6857,42.9575 188.5987,42.4255 188.5537,41.8985 C188.2887,38.7675 188.1257,35.6265 187.7717,32.5075 C187.4107,29.3235 187.5607,26.1385 187.4577,22.9535 C187.3197,18.6705 187.0237,14.3905 186.8897,10.1055 C186.8257,8.0265 186.9407,5.9375 187.0437,3.8555 C187.1037,2.6765 187.9247,1.8555 188.9337,1.7835 C189.9257,1.7115 190.7977,2.4555 191.0407,3.6235 C191.1237,4.0195 191.1307,4.4335 191.1517,4.8405 C191.2667,7.2095 191.3727,9.5775 191.4877,11.9465 C191.4987,12.1835 191.5467,12.4185 191.5747,12.6345 C193.0127,12.9405 196.4337,12.8525 197.5707,12.4465 C197.5707,11.9815 197.5577,11.4605 197.5727,10.9405 C197.6407,8.6945 197.7027,6.4495 197.7987,4.2045 C197.8167,3.8075 197.9397,3.3965 198.0937,3.0255 C198.4177,2.2375 199.0317,1.7665 199.8917,1.7835 C200.7547,1.7985 201.3717,2.3015 201.6407,3.0975 C201.8477,3.7075 201.9807,4.3715 201.9877,5.0145 C202.0307,8.3625 201.9797,11.7125 202.0397,15.0595 C202.1147,19.1875 202.1987,23.3155 202.4087,27.4375 C202.6037,31.2275 202.9617,35.0095 203.2697,38.7925 C203.3357,39.6045 203.4647,40.4145 203.6167,41.2155 C203.8117,42.2435 203.7937,43.2455 203.4517,44.2375 C203.1587,45.0905 202.5627,45.5835 201.7717,45.6185 C200.9577,45.6525 200.3647,45.2325 199.9827,44.3905 C199.3307,42.9575 199.0737,41.4275 198.9017,39.8865 C198.4877,36.1945 198.0227,32.5065 197.7507,28.8035 C197.5077,25.5065 197.4947,22.1935 197.3867,18.8865 C197.3687,18.3675 197.3837,17.8475 197.3837,17.2625" id="Fill-11" fill="#00A8A0"></path>
                <path d="M30.1546,14.3362 C32.5496,13.8072 33.4976,12.4202 33.3616,9.7972 C33.2616,7.8652 32.1206,6.4932 30.3596,6.3252 C30.1006,8.9862 30.0896,11.6452 30.1546,14.3362 M30.4596,33.2602 C30.5836,35.8882 30.2286,38.5172 30.6016,41.1252 C33.0276,41.1152 34.4056,39.4342 35.0026,37.9802 C35.5956,36.5392 35.3126,35.2652 34.2706,34.1422 C33.2696,33.0612 32.1036,32.5742 30.4596,33.2602 M30.1386,18.7822 C30.2346,21.9652 30.3306,25.1782 30.4276,28.4432 C31.4116,28.6252 32.3336,28.7472 33.2316,28.9692 C37.7426,30.0802 39.6866,33.4292 39.4206,37.5442 C39.3026,39.3802 38.5446,40.8052 37.3106,42.0902 C35.9366,43.5222 34.4756,44.7282 32.5106,45.3372 C30.7616,45.8802 29.2086,45.6202 27.6926,44.7752 C26.8586,44.3112 26.6406,43.4362 26.5626,42.5702 C26.2626,39.2362 26.0866,35.9022 26.1886,32.5432 C26.2626,30.1022 26.0076,27.6502 25.9036,25.2022 C25.8756,24.5482 25.8376,23.8952 25.8456,23.2422 C25.9166,17.5232 25.9926,11.8032 26.0756,6.0842 C26.1106,3.6732 26.9296,2.7712 29.3176,2.4752 C33.7386,1.9282 37.0486,4.5172 37.6006,8.9582 C38.1116,13.0502 35.8456,16.8722 32.0336,18.3012 C31.4736,18.5102 30.8666,18.6012 30.1386,18.7822" id="Fill-13" fill="#00A8A0"></path>
                <g id="Group-17" transform="translate(169.000000, 0.787300)">
                    <mask id="mask-6" fill="white">
                        <use xlink:href="#path-5"></use>
                    </mask>
                    <g id="Clip-16"></g>
                    <path d="M10.1639,14.7042 C11.9679,16.5982 12.8329,18.8632 13.1849,21.3372 C14.0579,27.4482 14.0529,33.5482 12.8619,39.6242 C12.6609,40.6462 12.2249,41.5552 11.5629,42.3632 C9.4629,44.9242 5.7359,44.5932 3.4769,42.4722 C2.5189,41.5742 1.7539,40.3782 1.1869,39.1832 C0.5629,37.8672 0.7239,36.3712 1.1039,34.9792 C1.4039,33.8712 2.3789,33.2662 3.4139,33.3522 C4.4949,33.4402 5.2949,34.2522 5.4689,35.4522 C5.5619,36.0982 5.6169,36.7512 5.7269,37.3942 C5.7799,37.7122 5.9019,38.0232 6.0189,38.3272 C6.2539,38.9442 6.6879,39.4342 7.3509,39.4362 C8.0659,39.4402 8.2509,38.7392 8.3419,38.2112 C8.5919,36.7662 8.7749,35.3052 8.9099,33.8442 C9.1069,31.7202 8.9639,29.6032 8.7099,27.4852 C8.4819,25.5822 8.4379,23.6582 8.2269,21.7522 C8.1199,20.7862 7.8889,19.8192 7.5989,18.8882 C7.2309,17.7072 6.5819,17.4272 5.3769,17.7832 C3.9929,18.1902 2.7429,17.6112 2.4009,16.4032 C1.9959,14.9682 2.7269,13.5792 4.1969,13.3282 C5.6849,13.0742 6.4839,12.2242 6.9569,10.8872 C7.4079,9.6072 7.7869,8.3212 7.6659,6.9402 C7.6029,6.2302 7.4099,5.5822 6.8709,5.0692 C6.3209,4.5482 5.9089,4.4612 5.3959,5.0122 C5.0019,5.4372 4.7539,6.0212 4.5169,6.5682 C4.3749,6.8942 4.4209,7.2972 4.3149,7.6442 C4.0039,8.6772 3.1819,9.2872 2.2469,9.2202 C1.3199,9.1552 0.5709,8.4322 0.3739,7.3932 C-0.0381,5.2202 0.7479,3.4212 2.2829,1.9772 C2.9749,1.3252 3.8749,0.7662 4.7789,0.4942 C6.9519,-0.1578 8.8699,0.2872 10.3589,2.1862 C11.4399,3.5662 11.9319,5.1152 12.0979,6.8162 C12.3749,9.6642 11.8749,11.7692 10.1639,14.7042" id="Fill-15" fill="#00A8A0" mask="url(#mask-6)"></path>
                </g>
                <path d="M50.353,7.1033 C49.024,6.9803 48.542,7.8193 48.149,8.6753 C47.493,10.1083 47.36,11.6563 47.334,13.2123 C47.33,13.5193 47.404,13.8263 47.44,14.1143 C48.813,14.2023 50.08,13.4883 50.492,12.2643 C51.064,10.5673 51.093,8.8433 50.353,7.1033 M47.09,18.0953 C47.012,19.8043 46.938,21.3843 46.869,22.9653 C46.803,24.4743 46.782,25.9853 46.669,27.4913 C46.45,30.4493 46.842,33.3663 47.189,36.2843 C47.284,37.0793 47.534,37.8933 47.888,38.6123 C48.451,39.7573 49.401,39.7793 50,38.6753 C50.321,38.0833 50.52,37.3843 50.6,36.7123 C50.744,35.4993 50.731,34.2683 50.839,33.0493 C50.881,32.5753 50.992,32.0713 51.215,31.6583 C51.626,30.8943 52.491,30.5343 53.304,30.7043 C54.15,30.8813 54.658,31.4353 54.848,32.2633 C54.92,32.5773 54.952,32.9193 54.911,33.2363 C54.587,35.7873 54.489,38.3863 53.631,40.8333 C53.302,41.7733 52.773,42.7103 52.115,43.4533 C50.428,45.3533 47.917,45.2983 46.206,43.4133 C44.655,41.7073 43.66,39.6853 43.313,37.4203 C42.886,34.6393 42.303,31.8643 42.425,29.0223 C42.582,25.3493 42.739,21.6773 42.907,18.0033 C42.974,16.5353 43.137,15.0673 43.131,13.5993 C43.123,11.6933 43.485,9.8503 43.985,8.0433 C44.61,5.7793 45.923,3.9793 48.131,3.0093 C49.655,2.3393 51.159,2.4313 52.513,3.5123 C52.865,3.7933 53.212,4.0783 53.552,4.3743 C54.413,5.1223 55.061,6.0583 55.209,7.1693 C55.724,11.0303 55.04,14.5123 51.722,17.0353 C50.818,17.7223 49.801,18.1073 48.65,18.0963 C48.171,18.0913 47.69,18.0953 47.09,18.0953" id="Fill-18" fill="#00A8A0"></path>
                <path d="M84.6577,35.4041 C84.5997,34.8651 84.5597,34.0901 84.4217,33.3321 C84.2157,32.1971 83.7857,31.1391 83.0257,30.2521 C82.6597,29.8241 82.1937,29.5971 81.6117,29.8491 C81.0957,30.0731 80.8917,30.4761 80.9257,31.0221 C80.9367,31.1851 80.9317,31.3481 80.9387,31.5111 C81.0277,33.5031 81.0457,35.5011 81.2367,37.4841 C81.3307,38.4711 81.6057,39.4961 82.0477,40.3801 C82.4977,41.2801 83.2067,41.1761 83.6377,40.2551 C84.3227,38.7961 84.6177,37.2451 84.6577,35.4041 M80.9117,26.3711 C81.4957,26.4061 81.9367,26.4231 82.3757,26.4601 C84.6127,26.6481 86.3067,27.5821 87.3027,29.7241 C88.0747,31.3841 88.4137,33.0881 88.6437,34.8941 C88.9337,37.1731 88.4917,39.2641 87.7517,41.3631 C86.9437,43.6551 84.2267,45.3191 81.3437,44.5531 C79.8357,44.1511 78.8627,43.0521 78.2617,41.6141 C77.3857,39.5121 76.9237,37.3141 76.8777,35.0561 C76.7597,29.3401 76.6837,23.6211 76.6587,17.9031 C76.6427,14.5141 76.7407,11.1251 76.8207,7.7361 C76.8437,6.8021 76.9147,5.8571 77.0887,4.9401 C77.2967,3.8431 78.1017,3.2011 79.0227,3.2271 C79.8887,3.2521 80.6377,3.8851 80.8687,4.9141 C81.0297,5.6281 81.1367,6.3691 81.1437,7.0981 C81.1777,10.2861 81.2017,13.4741 81.1607,16.6611 C81.1247,19.4771 80.9967,22.2931 80.9137,25.1091 C80.9017,25.5041 80.9117,25.9001 80.9117,26.3711" id="Fill-20" fill="#00A8A0"></path>
                <path d="M63.353,7.4744 C62.5,7.3254 61.822,7.2174 61.147,7.0874 C60.548,6.9694 59.938,6.8754 59.362,6.6824 C58.248,6.3104 57.675,5.4534 57.808,4.4814 C57.955,3.4044 58.846,2.6354 60.07,2.6744 C61.088,2.7064 62.108,2.8414 63.115,3.0064 C65.102,3.3294 67.086,3.4664 69.095,3.2444 C69.864,3.1604 70.645,3.1584 71.421,3.1414 C72.735,3.1164 73.807,4.1144 73.845,5.3824 C73.88,6.5654 72.991,7.4804 71.675,7.5714 C71.023,7.6164 70.366,7.5744 69.713,7.6164 C69.07,7.6584 68.431,7.7574 67.734,7.8384 C67.673,9.2704 67.56,10.6504 67.566,12.0294 C67.58,14.7654 67.672,17.5024 67.706,20.2384 C67.743,23.2224 67.724,26.2074 67.779,29.1904 C67.809,30.8234 67.936,32.4544 68.029,34.0844 C68.179,36.7324 68.343,39.3814 68.483,42.0294 C68.504,42.4324 68.483,42.8544 68.384,43.2444 C68.169,44.0914 67.538,44.6244 66.762,44.7044 C65.902,44.7924 65.167,44.4024 64.809,43.5354 C64.579,42.9774 64.424,42.3644 64.37,41.7634 C64.141,39.2014 64.028,36.6274 63.749,34.0704 C63.352,30.4384 63.601,26.8004 63.502,23.1654 C63.4,19.3684 63.236,15.5714 63.159,11.7724 C63.131,10.3924 63.278,9.0094 63.353,7.4744" id="Fill-22" fill="#00A8A0"></path>
                <path d="M94.7601,19.1248 C94.9081,23.5788 94.9891,28.0368 95.2291,32.4848 C95.3521,34.7638 95.7591,37.0268 96.0411,39.2978 C96.1411,40.1078 96.3201,40.9148 96.3361,41.7248 C96.3471,42.2728 96.2201,42.8598 96.0101,43.3708 C95.6921,44.1458 95.0541,44.6178 94.1841,44.5668 C93.3271,44.5178 92.7541,44.0008 92.4511,43.2128 C92.2901,42.7948 92.1381,42.3628 92.0711,41.9228 C91.6171,38.8948 91.0961,35.8718 90.7711,32.8288 C90.4371,29.7048 90.2361,26.5628 90.0951,23.4228 C89.9441,20.0748 89.8501,16.7198 89.8821,13.3698 C89.9051,10.9228 90.1611,8.4788 90.3391,6.0338 C90.3711,5.5918 90.4851,5.1428 90.6381,4.7238 C91.0481,3.6028 92.0651,3.0058 93.1371,3.2088 C94.0961,3.3918 94.7211,4.1968 94.7271,5.3838 C94.7421,8.0418 94.7201,10.6998 94.7171,13.3588 C94.7141,15.2798 94.7161,17.2008 94.7161,19.1228 C94.7311,19.1228 94.7451,19.1238 94.7601,19.1248" id="Fill-24" fill="#00A8A0"></path>
                <path d="M130.3719,69.2088 C130.3719,68.4698 130.3709,67.8618 130.3719,67.2538 C130.3769,64.8548 130.3899,62.4558 130.3789,60.0558 C130.3769,59.6528 130.3259,59.2378 130.2109,58.8548 C130.0079,58.1668 129.5929,58.0338 129.0299,58.4898 C128.7579,58.7118 128.5119,59.0248 128.3779,59.3498 C128.1629,59.8718 128.0019,60.4278 127.9049,60.9848 C127.5029,63.2848 127.5059,65.6058 127.6479,67.9268 C127.6749,68.3568 127.8109,68.7778 127.8979,69.2088 L130.3719,69.2088 Z M126.2499,69.1728 C126.2069,68.5868 126.1129,68.0228 126.1339,67.4608 C126.2149,65.2228 126.2989,62.9828 126.4529,60.7488 C126.4979,60.1118 126.6929,59.4448 126.9859,58.8778 C127.2739,58.3188 127.6909,57.7528 128.1969,57.3928 C129.7829,56.2628 131.4819,56.9478 131.7359,58.8748 C131.9409,60.4448 131.9119,62.0478 131.9299,63.6368 C131.9459,65.1048 131.8649,66.5738 131.8689,68.0408 C131.8709,68.6038 131.9009,69.1888 132.6729,69.3548 C132.8449,69.3908 133.0699,69.8098 133.0309,70.0078 C132.9939,70.2148 132.6859,70.4838 132.4629,70.5178 C131.8619,70.6098 131.2439,70.6078 130.6329,70.6148 C129.1629,70.6308 127.6909,70.6308 126.2219,70.6368 C126.0589,70.6388 125.8949,70.6408 125.7319,70.6308 C125.2539,70.6018 124.7709,70.4838 124.7849,69.9108 C124.7969,69.4168 125.2319,69.2908 125.6759,69.2738 C125.8319,69.2678 125.9869,69.2208 126.2499,69.1728 L126.2499,69.1728 Z" id="Fill-26" fill="#A3B939"></path>
                <path d="M94.5238,57.9593 C93.4958,57.7503 92.7698,58.1643 92.1588,58.7863 C91.6068,59.3503 91.7268,60.0443 92.4358,60.3933 C93.0878,60.7143 93.7908,60.9053 94.6418,60.6243 C94.6028,59.7273 94.5638,58.8553 94.5238,57.9593 M94.8008,63.1973 C94.7778,62.8273 94.7588,62.5193 94.7408,62.2133 C94.5658,62.1583 94.4568,62.1093 94.3408,62.0873 C93.4678,61.9153 92.5348,61.8863 91.7308,61.5493 C90.0488,60.8433 89.8508,58.8353 91.2528,57.6573 C92.3498,56.7353 93.6308,56.4213 95.0238,56.5303 C95.8088,56.5913 95.9988,56.8093 96.0448,57.6113 C96.2528,61.2833 96.4488,64.9543 96.6428,68.6263 C96.6618,68.9933 96.6488,69.3623 96.6408,69.7303 C96.6298,70.2483 96.4128,70.6213 95.8498,70.6133 C95.3388,70.6033 95.1678,70.2223 95.1498,69.7743 C95.0988,68.5483 95.0618,67.3233 95.0158,66.0983 C94.9998,65.6543 94.9738,65.2103 94.9518,64.7813 C93.6128,64.6403 92.5908,65.2163 92.1668,66.4723 C91.9238,67.1923 91.8908,67.9873 91.7948,68.7523 C91.7538,69.0723 91.7868,69.4053 91.7978,69.7313 C91.8158,70.2323 91.5688,70.5213 91.0818,70.5253 C90.6688,70.5273 90.4298,70.2723 90.3368,69.8533 C89.5958,66.5373 91.3138,63.8873 94.8008,63.1973" id="Fill-28" fill="#A3B939"></path>
                <g id="Group-32" transform="translate(47.000000, 56.787300)">
                    <mask id="mask-8" fill="white">
                        <use xlink:href="#path-7"></use>
                    </mask>
                    <g id="Clip-31"></g>
                    <path d="M5.1835,4.942 C5.3865,4.017 5.1845,3.185 4.8525,2.404 C4.7155,2.079 4.3425,1.67 4.0505,1.649 C3.7345,1.625 3.2745,1.932 3.0775,2.228 C2.5505,3.021 2.3735,3.923 2.5655,4.942 L5.1835,4.942 Z M5.3405,6.409 L2.2475,6.409 C2.2475,6.921 2.2345,7.394 2.2495,7.866 C2.2935,9.172 2.3555,10.476 2.3965,11.781 C2.4095,12.189 2.4045,12.599 2.3615,13.002 C2.3155,13.432 2.0255,13.643 1.6015,13.635 C1.1795,13.627 0.9135,13.418 0.8825,12.97 C0.8795,12.93 0.8735,12.888 0.8755,12.848 C1.0095,9.999 0.3845,7.15 0.9015,4.298 C1.0825,3.293 1.1695,2.264 1.7995,1.41 C2.4205,0.565 3.2675,0.081 4.3275,0.213 C5.2305,0.326 5.9325,0.829 6.2495,1.716 C6.4545,2.289 6.6675,2.884 6.7125,3.482 C6.9485,6.613 7.1305,9.747 7.3325,12.878 C7.3375,12.961 7.3495,13.043 7.3545,13.123 C7.3875,13.6 7.1915,13.949 6.7065,13.995 C6.1675,14.046 5.8705,13.713 5.8255,13.197 C5.7215,12.02 5.6405,10.84 5.5575,9.661 C5.4825,8.611 5.4165,7.559 5.3405,6.409 L5.3405,6.409 Z" id="Fill-30" fill="#A3B939" mask="url(#mask-8)"></path>
                </g>
                <path d="M179.2489,57.7444 C178.4909,57.9674 177.8839,58.0504 177.3709,58.3174 C176.5039,58.7684 176.5039,59.4454 177.3179,60.0164 C177.9069,60.4294 178.5439,60.6144 179.2489,60.2874 L179.2489,57.7444 Z M179.3669,62.8734 C179.3509,62.5294 179.3379,62.2514 179.3239,61.9344 C179.1399,61.8854 178.9879,61.8054 178.8389,61.8114 C177.9009,61.8464 177.0679,61.5644 176.3149,61.0234 C174.7839,59.9234 174.8479,58.2214 176.4419,57.2324 C177.3839,56.6484 178.4319,56.5044 179.4939,56.4894 C180.5059,56.4764 180.7529,56.7774 180.7839,57.8324 C180.8589,60.2814 180.9249,62.7304 181.0059,65.1784 C181.0479,66.4024 181.1169,67.6254 181.1709,68.8494 C181.1819,69.0954 181.1839,69.3394 181.1749,69.5844 C181.1589,70.0254 180.9009,70.2754 180.4829,70.2834 C180.0719,70.2904 179.7899,70.0504 179.7249,69.6284 C179.6879,69.3884 179.7029,69.1404 179.6909,68.8954 C179.6249,67.5904 179.5599,66.2864 179.4829,64.9834 C179.4729,64.7904 179.4009,64.6014 179.3579,64.4154 C177.7849,64.6374 176.9569,65.3444 176.7709,66.7644 C176.6479,67.6884 176.6919,68.6364 176.6749,69.5734 C176.6639,70.2554 176.4179,70.6314 175.9349,70.6094 C175.3579,70.5814 175.1599,70.1784 175.1839,69.6864 C175.2409,68.4294 175.2019,67.1464 175.4549,65.9264 C175.7889,64.3234 177.0889,63.5704 178.5569,63.1024 C178.8159,63.0194 179.0829,62.9534 179.3669,62.8734 L179.3669,62.8734 Z" id="Fill-33" fill="#A3B939"></path>
                <path d="M114.3535,58.2591 C114.1665,58.1831 114.0935,58.1311 114.0155,58.1251 C110.9535,57.9011 110.9345,58.5251 110.9265,60.7111 C110.9155,63.5271 111.0315,66.3441 111.1095,69.1591 C111.1375,70.1251 111.0095,70.4591 110.4915,70.5211 C109.9025,70.5941 109.5895,70.2071 109.5745,69.2221 C109.5265,66.0811 109.4555,62.9391 109.5015,59.7981 C109.5315,57.8391 110.2915,57.0821 112.2035,56.8031 C112.7665,56.7221 113.3445,56.7121 113.9145,56.7341 C115.1065,56.7811 115.6925,57.2551 115.9965,58.4281 C116.1485,59.0181 116.2745,59.6291 116.3045,60.2351 C116.4605,63.3341 116.5825,66.4351 116.7165,69.5351 C116.7385,70.0311 116.6195,70.4451 116.0625,70.5491 C115.5985,70.6391 115.2575,70.3051 115.2075,69.6041 C115.1015,68.0971 115.0505,66.5861 114.9725,65.0751 C114.8775,63.2031 114.7945,61.3281 114.6675,59.4571 C114.6385,59.0271 114.4505,58.6091 114.3535,58.2591" id="Fill-35" fill="#A3B939"></path>
                <path d="M147.5799,61.8724 C147.3969,60.7114 147.2839,59.7894 147.0889,58.8844 C147.0289,58.6084 146.6949,58.1534 146.5659,58.1794 C146.2619,58.2404 145.9179,58.4834 145.7399,58.7524 C145.1659,59.6214 144.9659,60.6064 144.9859,61.7564 C145.7949,61.7914 146.5479,61.8264 147.5799,61.8724 M147.4219,63.2264 C146.5939,63.1734 145.7899,63.1214 144.8239,63.0584 C144.7809,63.8644 144.7099,64.5814 144.7169,65.2984 C144.7279,66.6874 144.7859,68.0784 144.8159,69.4674 C144.8319,70.2004 144.6089,70.5614 144.1369,70.5324 C143.5079,70.4914 143.3679,70.0574 143.3419,69.5064 C143.1969,66.4014 142.9829,63.2874 143.6439,60.2194 C143.8339,59.3284 144.2669,58.4554 144.7419,57.6644 C145.1889,56.9224 145.9819,56.5664 146.8659,56.7414 C147.6849,56.9034 148.2559,57.4564 148.4599,58.2704 C148.6699,59.0974 148.8599,59.9434 148.9249,60.7904 C149.1249,63.4814 149.2639,66.1754 149.4239,68.8694 C149.4399,69.1564 149.5319,69.4764 149.4349,69.7174 C149.3319,69.9734 149.0579,70.3084 148.8329,70.3314 C148.5939,70.3534 148.2649,70.0954 148.0829,69.8724 C147.9509,69.7074 147.9799,69.4034 147.9579,69.1594 C147.7829,67.2494 147.6129,65.3394 147.4219,63.2264" id="Fill-37" fill="#A3B939"></path>
                <path d="M84.935,61.7181 C84.719,60.7061 84.607,59.7821 84.312,58.9231 C84.067,58.2101 83.463,58.1581 83.015,58.7801 C82.395,59.6441 82.038,60.6141 82.155,61.7181 L84.935,61.7181 Z M84.951,63.1711 L81.987,63.1711 C81.939,64.8831 81.864,66.4921 82.003,68.1091 C82.045,68.5961 82.123,69.0811 82.144,69.5691 C82.163,70.0341 81.948,70.3651 81.448,70.4041 C80.94,70.4451 80.688,70.1321 80.648,69.6741 C80.553,68.5781 80.438,67.4791 80.43,66.3801 C80.419,64.8301 80.425,63.2741 80.565,61.7341 C80.652,60.7751 80.898,59.7981 81.267,58.9081 C81.517,58.3051 82.018,57.7241 82.556,57.3401 C83.595,56.5991 84.856,56.9151 85.493,58.0331 C85.807,58.5861 86.034,59.2321 86.117,59.8611 C86.33,61.4771 86.432,63.1071 86.592,64.7291 C86.729,66.1071 86.888,67.4821 87.036,68.8571 C87.07,69.1821 87.107,69.5071 87.131,69.8311 C87.161,70.2151 86.959,70.5431 86.613,70.5241 C86.311,70.5081 85.973,70.2831 85.747,70.0541 C85.604,69.9101 85.62,69.5941 85.589,69.3511 C85.434,68.0981 85.276,66.8441 85.142,65.5891 C85.06,64.8221 85.019,64.0511 84.951,63.1711 L84.951,63.1711 Z" id="Fill-39" fill="#A3B939"></path>
                <path d="M169.6738,69.0042 C170.5068,68.4052 170.5788,67.5552 170.5798,66.7572 C170.5808,64.1032 170.5088,61.4472 170.4708,58.7922 C170.4658,58.3862 170.4578,57.9762 170.5178,57.5772 C170.5848,57.1132 170.8828,56.8402 171.3738,56.9042 C171.8798,56.9692 171.9928,57.3152 171.9948,57.7872 C172.0068,59.7062 172.0298,61.6272 172.0838,63.5452 C172.1118,64.5652 172.1938,65.5852 172.2748,66.6022 C172.3498,67.5502 172.5858,68.4522 173.1578,69.2402 C173.4168,69.5972 173.6018,70.0032 173.1598,70.3102 C172.7338,70.6092 172.3048,70.4812 171.9818,70.0602 C171.8338,69.8672 171.6818,69.6782 171.4758,69.4162 C171.2518,69.6052 171.0548,69.7812 170.8488,69.9462 C169.9508,70.6562 168.8208,70.5392 168.1938,69.5682 C167.8498,69.0332 167.5818,68.3862 167.4968,67.7612 C167.0528,64.5192 166.8298,61.2582 166.9688,57.9822 C166.9708,57.9402 166.9728,57.9002 166.9778,57.8582 C167.0578,57.0552 167.3278,56.7022 167.8268,56.7512 C168.3198,56.7972 168.5298,57.1842 168.4848,57.9902 C168.3138,61.0622 168.5528,64.1142 168.9078,67.1602 C168.9828,67.7902 169.0318,68.4672 169.6738,69.0042" id="Fill-41" fill="#A3B939"></path>
                <path d="M75.7968,61.7518 L72.4568,61.7518 C72.4378,62.2568 72.3878,62.6888 72.4088,63.1158 C72.5058,65.0348 72.6218,66.9518 72.7328,68.8698 C72.7468,69.1148 72.8458,69.3868 72.7678,69.5938 C72.6798,69.8268 72.4488,70.1458 72.2568,70.1648 C71.9908,70.1898 71.5848,70.0428 71.4518,69.8348 C71.2708,69.5488 71.2458,69.1378 71.2308,68.7778 C71.1068,65.9198 70.9978,63.0608 70.8908,60.2018 C70.8598,59.3838 70.8278,58.5668 70.8368,57.7508 C70.8448,57.0398 71.1258,56.6828 71.6038,56.7308 C72.2378,56.7958 72.3578,57.2508 72.3518,57.7928 C72.3438,58.6038 72.3498,59.4148 72.3498,60.2968 L75.8568,60.2968 C75.8568,59.3218 75.8668,58.4378 75.8518,57.5528 C75.8438,57.0918 75.9458,56.7218 76.4638,56.6598 C76.8738,56.6098 77.1858,56.7858 77.2858,57.2148 C77.3228,57.3728 77.3188,57.5398 77.3248,57.7028 C77.4748,61.3378 77.6228,64.9708 77.7688,68.6038 C77.7808,68.8908 77.8558,69.2078 77.7578,69.4548 C77.6548,69.7148 77.4188,70.0248 77.1738,70.1038 C76.7908,70.2258 76.4488,70.0048 76.3678,69.5678 C76.3068,69.2488 76.2958,68.9188 76.2758,68.5928 C76.1528,66.5538 76.0358,64.5138 75.9098,62.4728 C75.8948,62.2358 75.8378,62.0028 75.7968,61.7518" id="Fill-43" fill="#A3B939"></path>
                <path d="M139.1738,69.5975 C138.7288,69.8145 138.3458,70.0505 137.9318,70.1915 C136.7998,70.5755 135.8538,70.1745 135.4938,69.0335 C135.1658,67.9895 134.8928,66.8935 134.8258,65.8055 C134.6578,63.0765 134.6208,60.3385 134.5328,57.6035 C134.5178,57.1035 134.6578,56.7025 135.2438,56.6545 C135.7558,56.6145 135.9918,56.9125 136.0138,57.6545 C136.0788,59.9815 136.0868,62.3105 136.2148,64.6345 C136.2788,65.8105 136.5418,66.9775 136.7438,68.1435 C136.7888,68.4115 136.9568,68.6585 137.0718,68.9235 C137.9788,68.9815 138.1248,68.3265 138.1918,67.7385 C138.3368,66.4835 138.4398,65.2175 138.4688,63.9545 C138.5118,62.1575 138.4568,60.3575 138.4758,58.5605 C138.4808,58.1205 138.5528,57.6635 138.6908,57.2465 C138.8168,56.8605 139.1938,56.6435 139.5688,56.8465 C139.8028,56.9735 140.0608,57.3235 140.0588,57.5705 C140.0448,60.3445 139.9488,63.1195 139.9488,65.8945 C139.9488,67.0725 140.0508,68.2745 140.8558,69.2535 C141.1128,69.5655 141.2908,69.8925 140.9678,70.2255 C140.6308,70.5755 140.2238,70.5155 139.8648,70.2315 C139.6128,70.0345 139.3928,69.8015 139.1738,69.5975" id="Fill-45" fill="#A3B939"></path>
                <path d="M120.2265,60.3353 C121.7465,60.5093 122.4045,60.1153 122.4875,59.0843 C122.5425,58.4093 122.2805,58.0073 121.7195,57.9093 C121.0895,57.7973 120.5815,58.0723 120.4325,58.7063 C120.3075,59.2373 120.2905,59.7933 120.2265,60.3353 M120.2205,61.8913 C120.1445,63.9283 120.0445,65.9143 120.4805,67.8843 C120.5395,68.1523 120.6655,68.4393 120.8445,68.6433 C121.2745,69.1363 121.8125,69.0263 122.0755,68.4133 C122.1695,68.1913 122.1985,67.9403 122.2775,67.7093 C122.4175,67.2923 122.7335,67.1503 123.1465,67.2283 C123.5975,67.3153 123.6985,67.6403 123.6895,68.0523 C123.6645,69.0333 123.0135,69.9843 122.1805,70.2293 C121.2435,70.5043 119.9555,70.1003 119.4865,69.2473 C119.1605,68.6543 118.9235,67.9653 118.8345,67.2953 C118.4695,64.5243 118.6095,61.7433 118.8525,58.9743 C119.0255,57.0043 120.9365,55.9773 122.7425,56.7903 C123.9275,57.3243 124.3765,59.0193 123.6675,60.3053 C123.1995,61.1513 122.4605,61.6173 121.5145,61.7553 C121.1195,61.8133 120.7165,61.8403 120.2205,61.8913" id="Fill-47" fill="#A3B939"></path>
                <path d="M43.6909,63.993 C43.3849,64.023 43.1879,64.019 43.0039,64.064 C41.5149,64.429 40.3689,63.455 39.8549,62.329 C39.1679,60.818 39.2649,59.224 39.3109,57.633 C39.3229,57.194 39.5949,56.962 40.0219,56.957 C40.4499,56.952 40.7329,57.182 40.7539,57.615 C40.7809,58.184 40.6879,58.765 40.7639,59.325 C40.8759,60.166 41.0349,61.011 41.2779,61.822 C41.4339,62.337 41.8609,62.851 42.4369,62.712 C42.8339,62.616 43.3389,62.173 43.4389,61.791 C43.7049,60.776 43.7879,59.711 43.9209,58.664 C43.9679,58.302 43.9399,57.929 43.9669,57.563 C44.0019,57.071 44.3229,56.819 44.7769,56.823 C45.1899,56.828 45.4529,57.106 45.4859,57.528 C45.5179,57.933 45.5259,58.343 45.5129,58.748 C45.4019,62.257 45.2849,65.764 45.1699,69.271 C45.1669,69.394 45.1779,69.517 45.1709,69.639 C45.1459,70.073 44.8849,70.398 44.4899,70.32 C44.2069,70.264 43.8269,69.937 43.7659,69.669 C43.6419,69.122 43.6949,68.535 43.6919,67.963 C43.6869,66.666 43.6909,65.368 43.6909,63.993" id="Fill-49" fill="#A3B939"></path>
                <path d="M161.5536,57.8494 L161.5536,60.8114 C162.7846,60.8564 163.6446,60.3634 163.6966,59.6184 C163.7696,58.5804 162.9966,57.8904 161.5536,57.8494 M161.5136,62.5394 C161.6126,64.1224 161.7096,65.7064 161.8136,67.2894 C161.8646,68.0624 161.9286,68.8354 161.9866,69.6084 C162.0176,70.0154 161.9116,70.3514 161.4536,70.4304 C160.9776,70.5124 160.6546,70.3054 160.5546,69.8274 C160.4896,69.5094 160.4526,69.1814 160.4396,68.8564 C160.2856,65.1904 160.1486,61.5234 159.9876,57.8604 C159.9556,57.1624 160.3166,56.8064 160.9006,56.5854 C163.0386,55.7724 165.5016,57.7424 165.1596,59.9904 C165.0456,60.7434 164.5666,61.2634 163.9386,61.5804 C163.2226,61.9444 162.4416,62.1804 161.5136,62.5394" id="Fill-51" fill="#A3B939"></path>
                <path d="M58.8719,68.9984 C59.0949,68.5494 59.3099,68.1884 59.4549,67.8014 C59.5529,67.5394 59.4679,67.1824 59.6159,66.9774 C59.7759,66.7544 60.1069,66.5504 60.3709,66.5414 C60.5669,66.5354 60.8799,66.8134 60.9589,67.0324 C61.2999,67.9714 60.6269,69.4484 59.6729,69.9824 C58.7449,70.5004 57.5979,70.2214 56.8979,69.1884 C56.5169,68.6254 56.1939,67.9694 56.0499,67.3114 C55.4969,64.7664 55.5639,62.2004 56.0089,59.6454 C56.1689,58.7294 56.6479,57.9754 57.3759,57.3884 C58.2089,56.7164 59.3519,56.6634 60.2269,57.2344 C60.7649,57.5844 60.9549,58.1034 60.9409,58.7034 C60.9319,59.1034 60.7279,59.4224 60.3069,59.4954 C59.8949,59.5674 59.6239,59.3704 59.4549,58.9754 C59.0399,58.0104 58.6059,57.9324 58.0169,58.7754 C57.7229,59.1954 57.4999,59.7184 57.4189,60.2234 C57.0669,62.4124 56.9929,64.6154 57.4489,66.8004 C57.6129,67.5894 57.8249,68.3984 58.8719,68.9984" id="Fill-53" fill="#A3B939"></path>
                <path d="M155.0165,58.013 C155.0165,58.954 154.9935,59.765 155.0195,60.575 C155.1125,63.388 155.2225,66.201 155.3245,69.015 C155.3285,69.096 155.3295,69.178 155.3365,69.258 C155.3745,69.724 155.2315,70.09 154.7185,70.14 C154.1535,70.196 153.9135,69.838 153.8625,69.327 C153.8065,68.758 153.7415,68.189 153.7225,67.619 C153.6355,64.765 153.5635,61.911 153.4825,59.056 C153.4745,58.779 153.4365,58.503 153.4065,58.172 C152.9475,58.147 152.5475,58.136 152.1505,58.105 C151.7015,58.069 151.3185,57.879 151.3425,57.379 C151.3655,56.951 151.7275,56.784 152.1295,56.771 C153.5175,56.723 154.9035,56.684 156.2895,56.647 C156.4525,56.643 156.6185,56.655 156.7785,56.683 C157.1455,56.747 157.4225,56.968 157.3225,57.343 C157.2635,57.56 156.9935,57.829 156.7755,57.875 C156.2685,57.981 155.7355,57.965 155.0165,58.013" id="Fill-55" fill="#A3B939"></path>
                <path d="M64.8309,58.6688 C64.3359,58.6098 63.9459,58.6338 63.6209,58.4988 C63.4089,58.4128 63.1589,58.0908 63.1669,57.8868 C63.1789,57.6778 63.4729,57.4668 63.6729,57.2938 C63.7479,57.2278 63.9069,57.2468 64.0289,57.2438 C65.1309,57.2298 66.2329,57.2138 67.3359,57.2098 C67.4959,57.2088 67.7109,57.1988 67.8049,57.2908 C67.9899,57.4728 68.1979,57.7128 68.2189,57.9458 C68.2339,58.1038 67.9769,58.3838 67.7899,58.4438 C67.4089,58.5628 66.9929,58.5678 66.4459,58.6408 C66.4459,59.2868 66.4279,59.9268 66.4489,60.5658 C66.5419,63.3818 66.6479,66.1978 66.7479,69.0118 C66.7879,70.1148 66.6349,70.4258 66.0679,70.4098 C65.5159,70.3948 65.3299,70.0688 65.2849,68.9978 C65.1519,65.7748 65.0229,62.5518 64.8909,59.3288 C64.8829,59.1308 64.8549,58.9358 64.8309,58.6688" id="Fill-57" fill="#A3B939"></path>
                <path d="M30.3501,65.2747 C29.1581,65.2687 28.1951,64.4467 28.1811,63.4237 C28.1681,62.4207 29.1811,61.5887 30.3711,61.6237 C31.5131,61.6577 32.3791,62.4597 32.3811,63.4847 C32.3841,64.5277 31.5291,65.2807 30.3501,65.2747" id="Fill-59" fill="#A3B939"></path>
                <path d="M190.7568,63.2513 C190.7528,64.3583 190.1108,65.0223 189.0428,65.0273 C188.0168,65.0323 187.1648,64.1943 187.1668,63.1843 C187.1668,62.2753 188.0378,61.5453 189.0948,61.5653 C190.1258,61.5873 190.7618,62.2293 190.7568,63.2513" id="Fill-61" fill="#A3B939"></path>
            </g>
        </g>
    </g>
</svg>